/* XPM */
static char *result[] = {
/* columns rows colors chars-per-pixel */
"96 64 249 2 ",
"   c #1C1714",
".  c #17100D",
"X  c #231B16",
"o  c #241E1A",
"O  c #281D16",
"+  c #2E1B13",
"@  c #2B221D",
"#  c #26211D",
"$  c #33251C",
"%  c #39291D",
"&  c #2C2522",
"*  c #2B2827",
"=  c #312622",
"-  c #342A24",
";  c #3B2D24",
":  c #332D2B",
">  c #392E2A",
",  c #3E3126",
"<  c #36312E",
"1  c #3C322C",
"2  c #353333",
"3  c #3C3532",
"4  c #3D3935",
"5  c #3D3B3B",
"6  c #37373A",
"7  c #48301D",
"8  c #432E22",
"9  c #423225",
"0  c #42352C",
"q  c #493629",
"w  c #4C3A2C",
"e  c #48372A",
"r  c #543D2D",
"t  c #583C27",
"y  c #423632",
"u  c #443A34",
"i  c #4B3D34",
"p  c #443D3A",
"a  c #4A3E3A",
"s  c #493731",
"d  c #533E32",
"f  c #5D3E31",
"g  c #603E2D",
"h  c #5C412B",
"j  c #4C4135",
"k  c #46413D",
"l  c #4C423C",
"z  c #544235",
"x  c #5A4434",
"c  c #53453C",
"v  c #5A463C",
"b  c #55493D",
"n  c #5B4A3D",
"m  c #584937",
"M  c #69462C",
"N  c #634B3C",
"B  c #664937",
"V  c #68523E",
"C  c #79573A",
"Z  c #724D31",
"A  c #3F3E40",
"S  c #454343",
"D  c #4C4543",
"F  c #4D4945",
"G  c #4D4A4A",
"H  c #494749",
"J  c #524642",
"K  c #544A44",
"L  c #5B4C44",
"P  c #544D4A",
"I  c #5A4E4A",
"U  c #514748",
"Y  c #5C5146",
"T  c #55504D",
"R  c #5C534C",
"E  c #5B544B",
"W  c #534F50",
"Q  c #555252",
"!  c #5C5552",
"~  c #5D5954",
"^  c #55565A",
"/  c #5D5A5B",
"(  c #5C5758",
")  c #4A4D52",
"_  c #624E43",
"`  c #624F48",
"'  c #635345",
"]  c #6B5444",
"[  c #62554C",
"{  c #69564A",
"}  c #65594D",
"|  c #6B5A4D",
" . c #6E5945",
".. c #745D4C",
"X. c #775A46",
"o. c #625652",
"O. c #645B54",
"+. c #6B5D54",
"@. c #645D5B",
"#. c #6A5E5A",
"$. c #625758",
"%. c #715E54",
"&. c #785F52",
"*. c #79624C",
"=. c #6C6155",
"-. c #66615C",
";. c #6C635C",
":. c #686258",
">. c #736355",
",. c #7B6454",
"<. c #72645B",
"1. c #7A675B",
"2. c #74695D",
"3. c #7B6B5C",
"4. c #7C6956",
"5. c #766857",
"6. c #5C5E63",
"7. c #635E61",
"8. c #5C636A",
"9. c #656362",
"0. c #6C6562",
"q. c #6E6964",
"w. c #6D6B6A",
"e. c #67676A",
"r. c #726662",
"t. c #746B64",
"y. c #7A6D64",
"u. c #736C6A",
"i. c #7A6E6A",
"p. c #706769",
"a. c #7D7165",
"s. c #75716C",
"d. c #7C736C",
"f. c #787369",
"g. c #757373",
"h. c #7C7473",
"j. c #7D7975",
"k. c #7A7A7B",
"l. c #6F7073",
"z. c #855B3D",
"x. c #8B633D",
"c. c #815C48",
"v. c #886647",
"b. c #926A46",
"n. c #9A754E",
"m. c #826D5C",
"M. c #866A55",
"N. c #89725B",
"B. c #977659",
"V. c #946D52",
"C. c #A57C53",
"Z. c #A3774B",
"A. c #816F63",
"S. c #826C69",
"D. c #837264",
"F. c #8A7563",
"G. c #8C7965",
"H. c #82756C",
"J. c #85796D",
"K. c #8B7C6C",
"L. c #88776A",
"P. c #927B6A",
"I. c #977C65",
"U. c #827673",
"Y. c #847B74",
"T. c #8A7D73",
"R. c #837C7A",
"E. c #8A7E7A",
"W. c #837679",
"Q. c #927D72",
"!. c #A07F61",
"~. c #7F817F",
"^. c #B3895D",
"/. c #AA845A",
"(. c #95826D",
"). c #9C846D",
"_. c #9B8062",
"`. c #8C8174",
"'. c #85817C",
"]. c #8B837B",
"[. c #888378",
"{. c #938374",
"}. c #9B8573",
"|. c #9C8975",
" X c #92867C",
".X c #948A7C",
"XX c #9B8B7B",
"oX c #9A867B",
"OX c #978A77",
"+X c #A7886A",
"@X c #B68D66",
"#X c #B89369",
"$X c #A48B75",
"%X c #A38D7B",
"&X c #AB8E77",
"*X c #A8937C",
"=X c #B79879",
"-X c #BBA07F",
";X c #C69767",
":X c #C49C75",
">X c #C9A47A",
",X c #D3A77A",
"<X c #777E83",
"1X c #817E84",
"2X c #7A8286",
"3X c #8B8582",
"4X c #898786",
"5X c #948B83",
"6X c #9A8D83",
"7X c #958C88",
"8X c #9C938A",
"9X c #9A9187",
"0X c #999794",
"qX c #8E9396",
"wX c #A49383",
"eX c #AC9683",
"rX c #A29589",
"tX c #A99A89",
"yX c #B39B84",
"uX c #B49C88",
"iX c #A69B93",
"pX c #A48E84",
"aX c #B9A38B",
"sX c #ABA39A",
"dX c #BBAC9A",
"fX c #B6A796",
"gX c #B2A490",
"hX c #B2ADA6",
"jX c #CDAA85",
"kX c #C4AA8D",
"lX c #C5A686",
"zX c #D3AD87",
"xX c #D6B28C",
"cX c #C3AC93",
"vX c #C5AD97",
"bX c #CAB399",
"nX c #D6B898",
"mX c #CFB08D",
"MX c #E1BD98",
"NX c #C9B7A5",
"BX c #D4BDA3",
"VX c #CDBEB3",
"CX c #DAC4A8",
"ZX c #DCC9B3",
"AX c #CDC3AF",
"SX c #E2CDB2",
"DX c #E5CCAF",
"FX c #DEC09D",
"GX c #EADCCC",
/* pixels */
"L %.p.K 1 J. Xu.g.7.p I r.W D o.r.W.U J I U o.r.W.h.W l $.$.1 >.1.<.R i.;.L ;.t.;.[ R +.a.+.q.-.j.:.:.iXa.;.:.;.2.1 > : > L k l | | r.r.U a * p %.o.5X6XsXW.7.r.o.$.y.p.S.U $.W.#.U s U #.S.{ #.",
"2.E.i.K i .X].h.g.U #.0.0.( 3 P I $.o.U ` 7.1Xp.L #.7.D p.#.k L ] a.y.H.o.o.E ,.>.0 R H.;.K [ ! 0.O.q.8X=.-., p 0 i n K y R I D F.P.y.r.#.I o U r.` H.%.0Xp.7.I U U #.I o.o.$.h.r.J $.U 1Xp.1XU ",
"+.u.d.l y H.i.i.p.W.@.r.U S U p.$.p.J D p.7.i.7.1Xp.$.I 0.~ : >.D.aX1.P.4.u.2.z x | ].`.O.u.y.:.E < T 9Xa.y | <.j , / q.u.R.y.O.6XL.r.p.p.O.J +.a t.U.#.! U 7.R 7.$.J U U.J o.g.$.U r.1Xp.I hXQ.",
"0.R.w.: p [.$.#.o.7.q.o.r.$.U i.W.7.#.I 7.7X1Xh.W.p.7.U l 3 @ +.NXNX>.[ [ O.c c R H.`.O.E J.;.+.F ~ T 5X[ w y.D.(.l P p ;.u.R.U.7XR.#.#.W.i.5X#.- :.p.Q.i.U U U I $.U 7.7.7.7.7.S.#.#.S.a ` 7X1X",
"<.H.+.[ l d.H.h.L W U D p.p.7.r.u.h.7.$.i.3Xg.u.3Xk.u.w.! y y <. XwX| G.m.K R L +.0.+.J o.+.Y I l } T K.=.R O.0 4.| O.1 %.i.$.$.y.r.u.$.0.7.I c = #.o.5XU.W W U J U a U a 7.7.U $.` $.$.$.$.1X$.",
"d.+.=.- | u.5Xu._ _ I R $.p.! I O.U.#.7.r.t.y.$.7.W.Q $.p.u.F O.<.1.}.m.D.i K ' <.+.H.R D.H.K R p l l D.m [ L c i { {.N.+.q.o.~ U.r.U a Q r.R = K 0.#.sX7XI o.S.a U I U y p U 7.` a I s ` ` W.$.",
"3XY.#.T  .(.d.-.I o.S.! U U $.#.[ i.u.E.i.E.#.S.0.h.( $.p.r.= c { F.B.N.m.O.y K G.T.H.+.i.tXo.i j i | hXA.' 1.;.G.u z n d L #.c O.l * 0 s +.S.i $.<.;.J.1.J K $.$.v s y y D J a a U v U ` U y = ",
"t.i x B Z *.' c _ 0 ] c L $.L o.p.a ` o.D J o.y.o.y a y i < p P K } V *.+XN i i +.i y | T.+.+.K > u T.iX0Xf.K c y i a p b y y 0 8 > O 0 % $ q - :.:.y.Y J y 0 = > 8 : y > 8 y @ 8 > = $ = = > + ",
"s O + 8 Z C 7 + 8 _ M.d.<.<.J - s I #.J a ~ ` m.L y > i a D P K R ;.t.t.` c p p J P l L 0 9 i i J q.R.j.Y.].w.5Xj.5X5X Xh.E.;.$.U.t.P O.r C !.m.1.S.P.L.K R 0.S.#.S.p.` q ] V &.X._ a a > > $.d ",
"u > _ B.#X:X:Xb.N 5Xr.v I u l iX0X3XW.P J a | &X] { | y.d.&.D.&.$.P O.;.A.| &.>.t.#.Q >.| O.R -.t.].h.[.Y.O.u.d.8X5XR r.R >.L ;.Y.T.R.y.I.jXmXF.L.W.V.&.{ i [ W.#.W.#._ =XmXCXDXDXuXS.B.&.%.#.$.",
"U y S.=XxXMXMX,XnXfXh.1X3XH.rXr.%.u.I I $.P.ZXaX&.X.N.| y.1.Q.+.z F.wXH.m.{ M.m._ v L w r | u.O.q.j.7X4X-.K o.J R -.K o.s.<.u.t.R.R 7X{.B.lXM.m.$XJ X.X.> I ..7.o.I ` %.bXnXSXZXNXuXQ.1XM.p.1XS.",
"#.! p.B.MXnXxX,XmXiX3X8XR.t.| w a I o.P ! D.bXkXm.| d 1.E.i.o.o.D.O.O.E.S.y.S.!._ q L q ' {.t.0.~ ~ O.-.R p.-.u.$.t.+.d.f.} ;.U ~ R 1 v.v.>X+XF.{ Z X.N I A.r.$.y I J ` }.xXBX$Xv ] f v.Q.S.S.1X",
"$.c o.&XBXMX,X/.:X`.K  Xb v q - h.I ` o.U 0 lXG.N { &.A.S.I >.{ { +.{ ` S.#.E.pX&.= 8 8 L.rXY.-.R o.s.O.o.U :.u.O.k $.P I H.i.u.0.o.K F.V.lXkX!.B g g &.| 1.r.U I a 3 I ' #XI.8 ` +.f g ] B s ` ",
"R.a d.! {.D.*.M C > O ; w d ; a p.i.W.@.l o.vX%Xv { y.v [ r.-.w { _ { I S.&.h.6Xy.$   X A.rX2.o.3X~ $.E P t.~ s.j.L ~ R D R S p :.K R F.@X:XyXg Z t c.B O.O.U l I I : o i @XC s _ v _ 8 + + 8 c.",
"l a D a I P ' C h O o 0 i = @ t.7.K u k J L =X..J %.E.T.+.D.r.H.8X_ %.{ L.3Xi.T.o.+ . ; }.XX2.l R R ! c T R @.K k l k R <.} K * y J y ' V.jXI.X.f X.Z _ a r.i.q.$.o.y a ' :X#X+.` f f f t f g f ",
"> y a J U P v C Z.n 1 & 3 I #.W.1X! o.k l i eXX.%.H.E.U.{ ..A.R.+.a a d r.iX4XE.@.X X T.%X3.<.= @ K K ~ J E @.@.o.} ~ T q.iXu.D :.R -.= V.xXV.g c.C t s L i.0.0.( R $.J 3.zXmX%.{ s 8 8 - $ % f ",
";.l l R J [ { t =XH.f.} U.5Xq.3Xg.J U 3 p 9 ,.>.z _ L L +.1.3Xj.0.i [ L r.qX4XoX:.m b `.gXOX5., > Y u.Y P } P R @.R k 9.~ E d.l E } K c +XFX*.h M v.d _ ;.i.p.d.( P -.:.3.mX&X>.v v g % d U 0 8 ",
"[ R J r.k O.t.t #X[.P ' R u.R.q.U <.d.I y 0 yXH.a 1.b a J | 3X7Xp.y.J [ P h.T.T.~.4 n V *X-Xj , l O.O.K k i E -.P P @.d.P o.~ D -.L k } *XCX*.h X.r d d #.t.>.! Q S K U wXjXlX,.c.f %.i.$.a s f ",
"P D a r.P R } 9 @X<.4 r.u.r.W.u.p.E.<.@.U d }.#.' +.: 3 y J r.u.U.d.r.O.R -.s.'..Xb V j _.-X5.j u.} K K t.K l D P ;.j.f.'.d.a.:.k < 4 } -XSXN.V.V B g B v +.[ $.-.U / p.D.jXnXA.B 1.$.v s a v v ",
";.I P I o.! | M +Xd.k :.3XR.3XE.iX5X~ 5 D i oXH.1., # - i - a $.E.$.R $.p o.s.dX9X4 @ % *.MX~.:.[.u.:.} i l F T T t.t.q.6X#. X<.b k :.(.fXSXN.C B N X.] ' ;.p.I o.p H ! 2.jXmX&.] p.%.U D s U d ",
"`.l p.@.P ! I Z :XeXP p.4Xt.R.u.! D ! ~ ! z uX3.h l & $.J > j O.d.P P > k F :.%X{.j j , 5.nX~.E l E F L R ! i R.~ k ! ;.T ;.D.i l E ~ | aXSXV x.B d ] _ f u.U.I U D H H y.#X=X3.%.#.v r.I J = - ",
"z ' :.J D U +.M jXfX-.-.9.0.-.;.w.Q ! u # h =Xx 9 1 [ +.j i l ' y.E.R 3 4 4 i X j j l e +XFX(.m i K [ l R l l Y l ~ S t.:.u.(.c b 5.f.2.AXZXM.*.f _ d _ J #.U.7.R D S H +.@X*XL a s = c o.r.s U ",
"@ +.i R U 0.0.M jXq.P q.F k F 5 h.0./ p : B C.C 8 q 0 z q n [ c I a a $ - , j # , ; e , ^.mX .E K l 0 l c } l l k f.G T T =.3.n ' >.~.F gXSX_.V _ s o.| 0 [ r.9.( I p p O./.uX_ a @ y H.8 u.8X_ ",
"% e - Y t.:.x t C.0 2.! $.~ F F 7.h.p u > t n.v.q q %   ; i j : b | { ' % 9 ; % , % # , -XxXOX} E l E } y F l T S / 4Xl ! =.Y l _.N.OX5.*XCXM.=._ a %.J #.U.` D @.~ > P q @XyXy r.$.a - - U L U ",
"O $ , n ' n w 7 x.t M C m E 0 ! @.D P K w V.xXzX:X!.C.I.n m j e $ z 4.c l - , h e , :._.xX>X-X:.*.% b 4 j m , # k } OX=.} j E E ..} 4.j j =XX.} r l E d.E ;.Y ~ ;.O.u c *.xXaXa.+.J - # U.v a L ",
"1 R L ' N % 7 7 x.n.Z Z z.M.z e L l L w C xXMXMXMXMXDXMX=XV = % ' eXyX=XyXP.4.n OXdXSXFXnX>X#Xv.C N.|._.m j e j j V V V *.V b j , - m e E 3.- - , 0 d , , : % # 9 q C +XbXCX+Xz & 3 = a L o.W.6X",
" X6Xa.+.8 8 h C >X>X>XkXvXaXy.=.y.y.[ I.kXnXDXDXCXcXnXFX,X^.N.m fXbXlXaX*X*XgXgXdXdXgXbXkX>X-X#X_._._.$X(.`.f.`.=.3.dXaX$X*XG.~.`.:.k Y b E 2.f.[ ~ ~ -.T k } $ 9 C =XZXCXbX*X:.y U P d.;.u.W.r.",
"l +.`.' +X#XB.=XdXf.3.:.<.E E 3.d.+.D.K.J.0 `.f.=.| N.uX*XC /.,XkX].2.~ T f.:.G 6.~ E b } } ~. .~.(.`.a.:.5.*Xa.:.:.;.;.} FXdXd.T E :.~ q.2.:.:.:.d.:.s.h.-.P j [.5X X.X2.-./ q.;.#.! #.0.U.r.y ",
"J E =.=X>X,XNXJ.a.:.4 E 9XE } a.{.Y.9XwXgX[ D.c % b a.>.1 h /./.(.~ f.2.W / / ~.8.) ) S 4 b } :.m b :.~ :.`.OXa.f.~.s.E l 5.~.5.l b :.T f.[.2.E O.Y.:.p.].s.~.L f.T G S G G 4 f.~ u.f.9.7.W.O.D ",
"].;.~ B.,X;X*X[ $ - j j 1 =.~.s.6X X2.Y z n 1 $ *. .' j e m x./.G.-.q.T Q e.) k.8.^ ) ) b u } } b # 4 ~ E 3.[.~.b l 4 < : b 3.2.1 T Y b 2.XX=.-.f.j.U.[.y.0X=.Y :./ F ~ ~ 9.D F O.@.<.].S.u.+.a ",
".Xt.O.b ^.:XV., m @ , m {.~.Y V ' ..D.w E F F E a.n b gXj , n.^.`.l ~ F G / 8.^ ) ) ) 6.2X/ :.E k 2 k ~.~.f.qX4XE T 4 < k b _.q.:.2.k T [.t.E ~ q.~ ~ d.f.J.[.b Y P T W ;.-.: F } T #.0.#.I o.R ",
"8XY.E E Z.;XcXtX:., - j N e | $ q , |   =.=.j Y } , >.XXb # b.;XD.E F F -.~ -.^ 2X8.8.~.~.-.4 4 5 k ~ 2.~.:.t.:.Y F 4 A k E -X.X=.:.k k [.f.:.;.[.f.sX`.[.;.J., 4 4 3 F ;.@.! T K @.I a P [ y D ",
"iXJ.>.`.N >XeX*.V b G.#   0 V =.0 & k # b , K [.} :.OX3.m , v.;X2.T Q -./ K E G 8.8.qXqXqXQ '.-.l k A T 9.e./ Q :.P S ~ T ' nX*X~.E m j j j j :.~.~.~.x. .~.~.9 ; < ~ ~.Y m E :.iXR K J K s o l ",
"J.J 3.m.h =X.X9XOXn N.V >.a.| z XXhX5Xs.[.G.J.a.`.V a.X j } b.:X3./ / l.T / T S ^ 2XhX2Xl.l.g.E ~ K } :.0X2X~.l.w.~ Q 9.k =.nX:.OX} m : * 5 m ~.:.~.m ~.~.~._.7 ~.~.:.T ~.E :.5 @.T -.r.l X < O.",
", 1 Y +.; =XXX>.b >.z z ' rXsXJ.;.2.rX8XJ.[ T L Y $ V XXE - b.>XOXw.'.s.g.T 5 : G l.k.G 8.Q ~ O.j l } :./ F w.g.-.~ / k u 4.kXa.~.V E 4 F E ~.~.m , :.~.~.:.m O m  .:.} [.} :.9.J.[.@.< < # R.U.",
"y u E y v =X>.(.OXj w & >.6X' .XJ.' j 4.e :.j k 4 j l 5.j , C :Xy./ g.sX'.9.0.F -.2Xg.e.8.F ~.;.;.[.q.:./ S W ~.~ -.e.4 j (.nXOXOX~.k F ~.E 5. .j j M ~.OX:.:.X 9 ~.:.:.*XOXOX~.R ;.k 2 3 q.U.iX",
"l u l y d NX8Xt.| T 5.J.P.L *.' ' :.~ E   <.q.q.} dX`.' ; ; Z :XE @.7X4Xs.u.u.s.qXg.g./ P i.2.d.J.a.} O.n g.4X'.:.~.q.~.j _.bX(.+X~.5.:.E _.~.# < :. . .:.~., X b k E :._.OX2.4 Y.l H d.E.S.u.$.",
"Y l l Y { NX].uX=.- # .X=.} T.;.a.c 0 >.-.l '.7Xy.`.5.m 0 $ C xX[.G -.Y.u.P q.w.q.g.E s.P Y.H.1.>.O.K f.[ :.e.9.6.~ ~.T : 5.mXOX~.~.(.(.~.~.V e Y ~.~.~.~.~.~.4 :.:.[.gXOXXXE ~.K.=.-./ E.iX#.a ",
"u s i j ,.dXY.<.R < :.J.[ j | F...3.3.K.E.y t.y.+.:.j 9 9 ; x.nX5Xg.U ~ ! Q Q ) Q 9.~ U D o.>.O.$.Y.q.[.d.7Xs.g.w.) S F $ ~.mXOXOXOX:. . .5. .:.~.~. .E ~.~.M m >X*X(.OX5.OX5.~.=.E.@.R.R.L * i.",
"c l J l B eXL.dXE R :.0 >.d.H.n 8 1.} 3.| c Y.=.O., ' m z x Z.MX0X/ f.q.k 5 @.S S j.;.k S : a K t.q.4XJ.-.O.! l.4XE b - 4 (.nX*X*X(.~.~.V ~.~.*X5.OX .F V ~.V 7 #X_._.h ~.*.:.=.E 0.8XU.S.! +.O.",
"i } , < x $XH.>.} t.+.} +.L ' > 0 E.c =   L.=.O V 4.' L l w ^.xXsX/ ~ D.G Q Q Q Q @.@.D ! p J O.;.[.4X0XqX-.~ l :.k k & < (.nXaX~.~.*._.:.(., } ~.:.b 5.2.:.4 $ C C V  .5.} ~.m `._.b q.r.h.a U ",
"K c l 3 0 y.0 m.' L l [ r.' a.L o.K.Y q.& J.<.c 1 $XD.| *.B ,X,XtXqXu.k.$.@.G 5 -.R +.w.7.+.K L b d.[.7X5Xq.;.=.E 4 k 2 o G.>XN.E E 5.~.~.~.[._.~.:.-.~.4.k j m b.C x.~. .m m ~. .*.Y ~.U D > o ",
"=.' ;.L 0 >.[.' } v _ y.K.n s O |.$XQ.{.} *X .3.kX$XB.h 7 x.#X;X@Xk.d.j.9.-.q.^ 2 @.~ g.;.R k ,.n } 1.[ U c ~ 2.Y k l < k B.B.).Y u k  .h ~._.~.(.~ .Xj 5.:.:.m n.Z.^.jX(.~.- m ~.*.$ X X y O > ",
",.,.N.i ; ,.*.w n w n L w i $ @ h r r e x w r X.b.n.*.e z V.>X#XM.[ y o 3 ~ ~ k 5 5 D #.R L  .O   O c n c b , ; V b V , j mXbX*.# X < E ' ~.*.j 4.m 0 j , O j m ^.;X>X>X+X, m } 7 . . # 2 2 : & ",
" .x o J ].sX5X Xg.3X9X].T.iXY.<.<.c 1 E ;.D =.N.V r 3.D.oXaXBXtX`.l b T.R.;.U.l.w.qX4Xl.-.E a y u Y E % j h t O 7  .+X&XbXkXmXuX~ ~ k 5 4 u # b E b k E p p `.-XxX>XjXnXbXdXOX .- E ~.[.:.;.iXE.",
"rXi.r.f.D.y.<.oXZXY.5Xc $.K.9XwX3.<.=.+.T O.o.VXhXJ.dXL.' G.3.{ y.b y.z J :.9.E.iXsXg.0.9X.Xy.<.`.D.} [..X(.v./.kX_.4.=.a.OX8X[./ ~ ~ ~ b 5.~.[.`.~.*X5.~ V  .M.kXFX-X/.~.*X~.~.~.~.4X:.~ q.h.I ",
"H.d.6Xu.u.+.r.oXwXK 3 a Y =.}. X3.a.T.y.=.;.l Y.;.[  X;.} L +.J c 1 o.J ' q.[.~ ! 3Xk.3Xr.;.' O.f.$.y.=.2.`.$X^.#X..k T < 4 e.e.~ k q.~.~ ~ q.q.(.~.4 k } j 4 `.gX-X_.#XOX:.:.) m T -.^ 9.! P Q ",
"! i.$.d.-.$.1.+.K U a ' k p {.F.P.{.K.U.R 4 D @.~ ;.L.R a.<.o.P [ k z ' L T.R 3 0.3X~ i.u.i.! #.u.H.u.2.:.a.n ^.>X2.F T ~ w.w.q.6 5 :.:.:.5.2.:.E u # 4 V 5.*X=X+XOX:.-XOXF E ~.:.S -.^ g.w.! 7.",
"o.E #.O.o.~ @.:.$.k l L 3 P L 4.yXXXH.b y p D $.! +.D.O.L J > ` > - a #.} T.G 3 i.iX( i.<.U.#.H.<.;.O.R 0.0.X ^.lX`.~ k ~ :.^ F ) -.h.Q ~ 5X.Xs.s.~ F f.`.dXnX*X).B.4.-X{.2 9.9.W h.1X1X$.U 1Xp.",
"#.$.$.l L o.K $.P L +.$.u U +.3.cX6X>.D O.U ! ;.s.2.J.r.#.3 P y X c i.[ a +.7.@.qXg.G 7.w.@.@.$.;.R F R D 0.J ^.nX=.T k q.-.T 6 G F 0.0.k k E T -.q.a.~ `.kXmX=X).+X} aX|.H w.Q 7.l.p.p.p.7.p.$.",
"K L r.U o. Xr.<.<.J L l a K 1.m.BXK.>.J.~ U O.u.E.L i._ I o.o.0 O o.+.U D K -.Q g.I H S ~ @.#.q.;.P U R :.;.{.n.,X=.F W q.^ A w.Q T ;.g.'.-.~.E ~ -.Y ~ [.dXdXfXdX(.*.*XT.-.D * 6 / ^ U S A I U ",
"D +.d.K $.I 0.9.p J i y 1.P D G.nX%X[ l -.#.;.0.0.<.O.i.#.J 8 ; v %.K.o.z i.3Xk.^ H 6 H u D @.-.J 0.s.P P u.d.r ^.N.P l :.S F A G 1 X = < gXeX! k k -.~.8XaX`.a.`.} =.a.wX7Xp.A 6 7.6.A o y U 1X",
"R ! y.T.{.E.r.O.D o.=.[ } $.P E bX{.' [ U W $.P u.l +.H.U 1 . O &.F.A.I y.NXT.@.! S W W 9.#.#.! / F u.~ ! T =.r @XN.~ ~ s.Q / G / K :.Q q.t.k [.b ) ~.`..XfX{.yX).tX:.`.yXE.5Xh.l.! U A p.W U U ",
"I H.y.$.A.T.i.;.K z [ J b >.eX}.>X{.K U U D U P o.! #.z 1 - : T.Q.$XG.$.S.bXi.E U 5 G S $.@.w.h.q.P R p.~ Q l r -X4.J.K / l.~ 6 G , t.dX0Xu.q.;.k / XX8X8XtXwX|.[.rX| OX}.U. Xq.k.p.h.6.U W <X1X",
"L L.#.<.+.+.;.#.P K u y i %.wX&X:X$XJ J y y U W F #.I 2 4 r.#.Q.oXL.y.a l NX8XP 6.@.D A ;.R U w.s.0./ q.Q F } B mXJ.=.T ~ S 9.-.q.:.u L.Y G t.O.2 [.:.OX`.*X=X*XwX].M.|.|.;.0.U.i.W.1XQ S ^ <Xe.",
"o.i.<.K d d L [ F.y y a c oXvX*XzXT.J a 3 G W J W.y.r.L.wXE.J t.r.#.#.U =.bX3XR $.9.2 3 p $.u.r.o.! 0.k.e.E.' *.CXJ.T < -.~ -.F S T ! s.5X0XiX[ 4 E 5.4.4.$X8X`.K.{.4.).eX$.o.%.U S W.p.6.$.<X$.",
"S.Q.5Xd +.J y.#.d 1 y 1 O.%.vXuXI.<.7.> 3 I U I 7XI 0 J S.a J J U ;.E.1.1 uXd.+.T -.F ) Q 5 U / Q U Q S.E.oX_ c.nX`.< # - < k '.5 U ! d.d.D E.,.* 4 Y T.=X%XsX<.m *.X.XXbX| -.#.^ S @.( p.$.e.$.",
"H.y.U.y.%.o.+.+.a a ` L wXrXuXuX..7XA.= 3 U W U 1X7X7.k q.R l #.Y.;.$.R I bXp.P 4 2 F 9.! @.I Q Q Q h.6XE.6X1.I.lXz 3 F 4 T @.~ A 9.9.1 P 8X[.! R ! H.dXfXXXN.' XXM.x ).%X&.F.P y < A W ^ p.$.i.",
"oXr.1XS.o.+.y.y p o.L _ m.sXU.uX!.pXr.o # y 1X7.%.S.y.r.o.p u.<.y.P R H.%.kXD.k 1 S / ) U 7.g.7.I U H.8XI A.I.V.yX1 O.~ ~ J d.~ 9./ l 4 Q s.u.R | u.uXpX%X}.Y.XXK.z l m.uXI.<.$.: p < 6 S Q p.1X",
"pXy.pX%.y pXsXr.J L o.[ { 1.1.A.c.N a a & > L.7.I $.o.- u a R y.$.I [ R _ =XkXq.  S S * u ! #.i.p./ #.y.+.rXdXM.&Xl ;.| ~ 9.;.p D K & Q $.h.{.Q ;.d.A.r.%XF.b Y H.XXO.L.#X] { P < : : H ) ^ g.rX",
"L A.y.U +.T.iX%.L J J P +.+.s &.c.m.r d ; $ s &.&.M._ ` o.o.E O.c 3 - > y +XnXuX1 Q < 2 p F $.t.[ , # 9 r x V C =X`.w n Y L >.< y @ X > K E e 1 L j Y - N >.l rXdXyXfX&XuX&.K _ - * o 3 < : a > ",
"` &.L 0 ' >.| 0 > K I R I U A : | cXeX..d ; Q.C.x.z.z.z.C C C z.c.*.u p H.=XbX+X,.Q.%XeX|.] w 9 ; ; - r V ] B M #XN l < # & : p : k G / T 3 2 3 @ & # k 4 4 5 : R K O.f.GXZXaXq.E.hXdXW 6 W ! : ",
"D u K - P r.S.I K a R y.<.;.i.r.#.6XeXwX0.>.BXBXQ.+XeXbXfX%XuXBXaXkX&X=.o.A.lXkXaXbXNXuXaXkX+XP.L.oXdXbXbXBXbXcXuXwXa.`.-.q.j.R.~.'.6XY. XY.;.f.E E `.f.aX*Xy.[.J.s.iX`.f.-.E.@.'.fXNXfXtXaXvXsX",
"L.r.I y.o.1.O.#.o.<.E.<.#.D P W ! P R :.L F.yXF.}.+.Q.vXtXE r.dXdXbX}.eXcXvXT.aXBXZX.X2.G.&X=XbXP.>.O.[ >.aXK.3.:.F / q.f.w.k.~.w.e.$.Y.f.F S ) ~ [..X:.~.a.P  XF 5 5XT c 6 * 4 Q ! #.uXBXVX%XO."
};
