/* XPM */
static char *result[] = {
/* columns rows colors chars-per-pixel */
"96 64 256 2 ",
"   c #1A1816",
".  c #110F0C",
"X  c #261E14",
"o  c #2A2319",
"O  c #372A1A",
"+  c #362A14",
"@  c #292824",
"#  c #362D24",
"$  c #3C342B",
"%  c #3A3227",
"&  c #3A3734",
"*  c #2C2E2F",
"=  c #1C1F22",
"-  c #47351C",
";  c #553B1B",
":  c #452E17",
">  c #663B14",
",  c #433423",
"<  c #4C3A24",
"1  c #4C3D2C",
"2  c #453828",
"3  c #543E27",
"4  c #473D32",
"5  c #66451D",
"6  c #794618",
"7  c #5C452B",
"8  c #574328",
"9  c #4C4235",
"0  c #4A4339",
"q  c #524434",
"w  c #5D4A34",
"e  c #5C4C3A",
"r  c #554839",
"t  c #544633",
"y  c #654A2D",
"u  c #684927",
"i  c #764D24",
"p  c #74522C",
"a  c #7B542A",
"s  c #634C33",
"d  c #624E3B",
"f  c #694D35",
"g  c #64523C",
"h  c #6C553C",
"j  c #6C5436",
"k  c #735433",
"l  c #7C5B34",
"z  c #735A3C",
"x  c #7B5D3C",
"c  c #765736",
"v  c #6E512E",
"b  c #7C623D",
"n  c #59411B",
"m  c #574D43",
"M  c #5C5249",
"N  c #534F4C",
"B  c #645443",
"V  c #6B5642",
"C  c #6D5A44",
"Z  c #6C5C4B",
"A  c #64584B",
"S  c #745D43",
"D  c #765E47",
"F  c #6B5E53",
"G  c #635C55",
"H  c #604F40",
"J  c #7C6244",
"K  c #7C644B",
"L  c #76624A",
"P  c #6A6258",
"I  c #746353",
"U  c #7A6653",
"Y  c #7D6A54",
"T  c #7B6B5B",
"R  c #75675B",
"E  c #776D65",
"W  c #7C7269",
"Q  c #6C6866",
"!  c #864A17",
"~  c #8A521D",
"^  c #99551B",
"/  c #914711",
"(  c #A8591A",
")  c #AD5813",
"_  c #B6631B",
"`  c #AF611F",
"'  c #835A2D",
"]  c #885828",
"[  c #975A26",
"{  c #845C33",
"}  c #8B5B33",
"|  c #855C3A",
" . c #93592E",
".. c #A75D22",
"X. c #AA5E32",
"o. c #98622B",
"O. c #83623B",
"+. c #8C643B",
"@. c #8B6537",
"#. c #946B3C",
"$. c #9B6C3D",
"%. c #966636",
"&. c #9C713B",
"*. c #8D6028",
"=. c #A96529",
"-. c #B56927",
";. c #BA742C",
":. c #A36C3B",
">. c #A96A36",
",. c #B36D34",
"<. c #A8733B",
"1. c #B67739",
"2. c #AC712E",
"3. c #C37632",
"4. c #846443",
"5. c #8A6643",
"6. c #8C6B44",
"7. c #836A4B",
"8. c #8C6C4B",
"9. c #856749",
"0. c #946C43",
"q. c #9B6D43",
"w. c #946C4A",
"e. c #8D714A",
"r. c #9C7244",
"t. c #94724C",
"y. c #9B734B",
"u. c #977448",
"i. c #846B53",
"p. c #836E5B",
"a. c #8A6C53",
"s. c #8D7255",
"d. c #8B745C",
"f. c #87725B",
"g. c #947453",
"h. c #9B7554",
"j. c #9C7A54",
"k. c #93755A",
"l. c #9C7C5C",
"z. c #957958",
"x. c #916E53",
"c. c #A47444",
"v. c #AC7B44",
"b. c #A47A4B",
"n. c #AB7C4B",
"m. c #A77647",
"M. c #B37D4A",
"N. c #B57B44",
"B. c #A47C54",
"V. c #AB7D53",
"C. c #A37E5C",
"Z. c #A97C57",
"A. c #AB744B",
"S. c #847364",
"D. c #8B7663",
"F. c #8B7A6B",
"G. c #877869",
"H. c #947B63",
"J. c #9B7E63",
"K. c #937E6B",
"L. c #947963",
"P. c #887C73",
"I. c #897768",
"U. c #A07F63",
"Y. c #825E43",
"T. c #C57B47",
"R. c #8C3C0B",
"E. c #BA823E",
"W. c #C6833A",
"Q. c #C3852F",
"!. c #9D815C",
"~. c #AD814C",
"^. c #AE8146",
"/. c #B4834C",
"(. c #BA844C",
"). c #BA8646",
"_. c #AC8354",
"`. c #A4825C",
"'. c #AB845C",
"]. c #A88459",
"[. c #B38453",
"{. c #BC8B54",
"}. c #B48A5C",
"|. c #BB8C5B",
" X c #B68657",
".X c #BD915B",
"XX c #9C8264",
"oX c #9C836B",
"OX c #97836B",
"+X c #978676",
"@X c #8E8174",
"#X c #A38464",
"$X c #AC8A64",
"%X c #A3866B",
"&X c #A58A6D",
"*X c #AC8B6C",
"=X c #AA8665",
"-X c #B48C63",
";X c #BB8D62",
":X c #B28D6B",
">X c #B48A64",
",X c #BB9363",
"<X c #BB946B",
"1X c #B6936A",
"2X c #A48A73",
"3X c #AA8D73",
"4X c #A48B76",
"5X c #AC937C",
"6X c #A99178",
"7X c #B49473",
"8X c #B2957B",
"9X c #BC9B7C",
"0X c #B99776",
"qX c #AE906E",
"wX c #C68948",
"eX c #D7934C",
"rX c #C38C53",
"tX c #C58B57",
"yX c #C2935C",
"uX c #C99558",
"iX c #D69A59",
"pX c #CF8F4E",
"aX c #D8A15C",
"sX c #C39464",
"dX c #C69A68",
"fX c #D49D66",
"gX c #C59C75",
"hX c #C48D62",
"jX c #CCA26C",
"kX c #D8A569",
"lX c #C9A379",
"zX c #D6A877",
"xX c #DAB17C",
"cX c #E7B678",
"vX c #E4A96B",
"bX c #998E84",
"nX c #A99785",
"mX c #B69C84",
"MX c #A89D93",
"NX c #BBA288",
"BX c #B8A796",
"VX c #AEA396",
"CX c #BAAFA5",
"ZX c #C7A687",
"AX c #D3AC86",
"SX c #DAB388",
"DX c #C7AD95",
"FX c #CAB29B",
"GX c #D7B696",
"HX c #D0B390",
"JX c #E4B98B",
"KX c #C8B6A5",
"LX c #D3BEAB",
"PX c #EDC794",
"IX c #D7C2AD",
"UX c #E6C5A5",
/* pixels */
"&X!.2X5XI 8 b l % 8 f y y z - : 5 5 7 s s e r z , g {.>.o./.<.=.N._.&X=.] m 7.A e 0 % lXlXE.).^.E.*.Q.E.hXy.o w.5.s 4 4 r 4 /.).E.E.E.o.E.b & R P.@XVX+XA t ].d.!.D.OXG.& * T P.G.G.G.W S.F * 0 ",
"%X$XqX5XA 8 w g z j e q g XX+XOXT G.OXd.d.XXP f 9 d.(...N.<.$.<.<._.H t.F.Z.8XoXt L j }.2.o..X,X^.^.E.=.N.L.o - < S i.R E E 8 &.&.6.@.g OXCXCXIXKXVXVXCXVXbXI g.!.d.H.R @ A S.f.!.f.T OXT L 0 9 ",
"w g g e # u &.^.1X*X$XR v ,X0X!.oX!.].u.~.`.-X0 , j.=.2.1.<.^ >.dXn.S %XL.A.%X'.N z ).^.2.E.E..X).^.^.2.,.U.# x Y.8.d.c f j r x L J r OXIXIXIXIXIXCXBXBXVXCX@Xe.e.K 9 o w e G.D.f.@X!.L Y L R 9 ",
"b a v b I O - n v 8 - X b $X0XqXVXMX6.!.!.u.].].% Z.=.[ ^ >.o.:.[.B.$Xi.U.V.oXA.I ^.E.).E.).Q.E.<.2.2.E.=.C.@ a ' } u 1 T P g V Y P 9 T IXCXIXIXCXBXCXIXFXMXR M & T Q @ 2 2 d.Y @XW L J !.T L G ",
"a i i a T y a @.&.a a N j 1X].'.&XnX5X!.l.b.$X&XN x 2.,.<.<.c.<.|.'.k., Z.U.=X=XB ^.E..XE.kXE.1.2.;.;.` <.Z # p { i.XX0X%X=X!.y.#Xz.8 Z FXIXCXCXBXBXHXBXNX6XY Y OXf.d.P s g e !.OXT Y Y 7.7.R g ",
"*.l i @.L *.*.*.2.*.*.z e 9XqX&X].&X5X6X2XXX6.k 8 8 p 3 - ; 5 [ p x V , w.' Z.A G L E..X).uXaX2.N.yX{.E.e.& & 9 :.(.,XqXk.G.6X}.~.e.K F CXCX6XOX7XNXCXBXBXVXR OXs.!.+X& t z N % - b L !.!.OX0 b ",
"a l i { g %.o.*.*.*.*.E.9 _.,XNXNX!.#X7.z g q I W H.k.Z L Z a ! y.mX+Xm  .5.3 i.R % j w n % % u.K 6.#.6.2 I 6Xp.O <.^.DXIXVXOXXXe.!.P @XKXVXOX!.qXHXFXGXVX@XW Y f.t.@X# e.+XG = = w 0 n < - A 7.",
"' @.~ 6.0 8 5 u @.@.@.e.+ !.z g 9 O t $ C NX&X3Xh.5.c.k.] $XI 7.3X8X2XZX*X7 w.fX7XqX].t u z L i.L O.~.s.9 gX1X4X0.f ).jXBX+XMXnXb *.S.6XVX2X$X2XqXHXIXBXMXN OXd.s.oXG + ].W M @X& !.!.J 0 $ !.b ",
"} { { l.V e.T $ n n 2 + 2 t 9 ].:XgXgX<XB.B.V.B. .h.[.i _.oXe y x b.8.0.f - ' kXlX6X$Xv jX{.,X6X+X&X<XjXi..X3Xg.u.J , ' > ' B.0X#.%.J K BXBX7X0XmXFXHXDX@X8 p.R g 2 0 X i.4.' !.E t b +.g L z L ",
"] ' } +.8 1.|.m a @.O.u.u.*.8 ].gXgXgXgX#XM.7X .:.0X' s.Z.z $Xy.4.1 q B f 1 s 5.J.s.k.O.jX-X~.~.&XoX<XdX4 V.-XJ L &XDX4 =X].+.' v @.t # 7.XXT A l | S 5.{ a i ! j.6 { . OX!.6.u.e.G   < f.b z L ",
"] ] +.5.4 @.{.e.*.*.o.o.o.#.* % f i.U r h V.>./ o.V.0XK 3 % dX*X7X#XT @XI.Z F Y.yXdXoX7 W.<X].~.^.L 9.V M 2 g.S.7X0XgXm 8 @.' p & 9 A M @XVXMXP.C } | } } [ } ~ ^ 6 6 , Y e.O.OXs.f.@ Z e.b l !.",
"; y z 2 2 o u 6.k *.*.&.@.s g.~.~.[.Z.XXP x q.q.{ } { j.r 7._.}.!.k.ZXZXCX=Xl.rXN.N.|.A - p 6.`.$X6X7X1X$XOX`.mX:X0XZXI f.C XXY S.@Xk.@XQ bXbXQ D | ' ] ' o.+.! ^ / 6 [ L u.Y e.J 9 M s.b !.e.b ",
"- 8 g.OX@X+XOXOXG.i.6.J h !.&.#.%.m.A.b.1XM l <.J XXBX9X9 <XgXAXB 9XZXlXAX[.>XgX|.|.(.}.@ `.SXcXlXjXAXqX=Xl.t.$X-X-XB.B k.<XM.>.:. .o.%.W @ 8XS.S  .} | a.x.' k ^ ^ ! 6 i #.Y z I K !.Y l #.b b ",
"1 u `.OXD.f.+X+X+X#X}.z #.+.+.+.} c./.A.1XT z *.K 9XmX+XM 8 $X9.XXHX;Xo.,.N.{.[. XsX).wXT l.GXAXzXHXZX,X=Xx.#XC w.9.q k.0X(.A.1.c.>.:.=.k.& 3X5XT V.a.f 5.| > ! *.^ ! 6 u 8 e.L m ].].!.b !.!.b ",
"L O B.B.u.!.:X2X&X#X}.3 Y.y.} +.B.B.;X>X-XH.K !.].NXNXMX@XJ jX9XsXn.<./.N.<.|.;XM.<.M.M.}.k.JXxXzXzXzX,X%XV s.oX5X3XnXd T.;.>.,.N.>.1.,.>.m C S.R %X8Xf c 5.5. .~ / 6 ! *.2 L e 1 6.b j j w % 2 ",
"C.4 i ' O.w.B.`.g.t.A., s r.w.$.r.q.b.|..X<Xf.z.0X&XXXXXp.sX$XlX(.n.yXdXdX;XhX X(.2.N.N.[.XX*X#Xs.w e L L.DXZXA.=.( ,.a.v 1.M.M.N.<.&. .u 3 z s | R d.} p a ' } ~ ^ ^ / ~ w @ 9 & 9 9 $ e J !.#.",
"h U V e - : : % O 2 8 9 y ~.b.y.m.'.b.n.).(.k.y 6.Y s.!.d.w OX1Xm.o.'.|.{.M.{.1.(.>.1.1.v.J.Z A.$X:XlXN.N.V.A.,.( ( -.X.p.5 :.q.%.O.+.l.S.s E.yXj o O.+.l p a ' ] / / 6 ^ @.o @X!.#.L 9 L f.t.9.",
"D O.O.@.j.S - 8X&X6X6X8Xp.{.b.$._.#.O.+.l s 9 Z 6X9X9X0XnXh 9X}.:.$.<.n.|._.wXE.>.1.wXyXv.g.H.:.-XA.A.>.>.>.X.X...( ` ` J.4 7 g.t.n.1.>.>.U u <.1X- ' } a ] i ! ! > > ! ^ ~ O R L v j $ 6 } ] ] ",
"h.u.].0.~.t C &X&X`.z.].G.8 +.~.|.7.J j.uX{.'.0X9X7X$X1XOX9 lXlX$.:.<.1.{.rX1.2.-.;.;.rX<.&Xk.K h.zXM.N.X.,.T.^ ..) ` ) 8XS., (.-.=.2.=.:.y.@ ~ {.6.8 8 y 9.e 8 9 g L h B < m r r 9 2 9 & L 5.K ",
"7 s f z e.+ i.#XoXe.u.g.G.8 <X.XdXl.y.b.jXdXyXjXjX/.@.l 9 z ,XlX1.&.n.v.M.,.1.;.3.;.;.;.v.M.2XE l.UX,.>.,.T.N.....( tX>.nXS.O : c.[ ] ] a +.P B R U @XP i.:XM 9.#.k p b J % J s.e.!.K R M s +.5.",
"h.%.$.8.j t 7.8X#X3XXX$X6X- `.j.}.K s.#X}.b.0.t.< % qX9XnXd.7.7.B L C h ^.^.^.<.iXW.Q.W.E.<.XXr t.UX<.,.1.>.N.,.,.-.,.M.%XK.C p.5X`.5.t.!.g.!.s.OX!.G.U j &.l $ p.W f.p.R & O z K s.!.!.H k  .6 ",
"q.0.[ ] [ x ; + o , K z.V U d.5.0.0.B O s t.k.n.#.b kXW.E..XjX{.AXNX@Xs.O.%.p S o - u i @.,Xe '.V $XkXfXpX>.,.N.,...3.1.>.D.t.0XJ D }.|. X'.}.z.6.qXd.G.e O.] 1Xb.%.+.o.u.7.m ; 7 g t $   +.R.! ",
"l v a ]  .v ; 3 1 2 0.$.>.(.<X>.N.1.rXE w j l s.M M O.l *.#.e.v v 6.~.OXOXXX1XqXnX+XM jXb 6.z sXhXy.U.kXJXzXrX-.,.,.dX=.) X.T U Z M z &.~.&.t.].z.L 8 4.9 & + t.:.:. .o.&.@.Z - p 9 4 0 p.4 i 5.",
"f w y y v S L D 4 t.<.v.N./.tXM.M.,.;.9.9 &XGXSXHXHXHXE m OXNXW $ +.1.<.]._.,X[.].2XY u.b.<.v.g.fXhXzX4X|.fXtX-.3.,.rXwX..q.1 c.rXV.v g $ 6.0   +  .%.&.u.P @ i.[ o.[ %.:.@.u.M # $XI t '.N f.3X",
"5.+.a.s.h.#.q.y.f ).{.1.<.{.{.<.1.).:.z m XXjXlXJXSXzXd.Y zXgX7X8XZ >.1.{..X0X1X%XK.;X-._ _ _ ; x 0XSXr o %.@.a %.l v #X+XoXW C V   w t.y.] 8.m V >.q.y.k.W 4 w n.o. .] o.~ [ i.& `.P 8 a S.x.J.",
"6 ] [ i ] ]  .@.x b.^.#.a l y 8 l !.!.`.*XU p t.J J e 9 7XzX,X7X.X.Xg ).eXrXrX/.!._.,.;.Q._ -.a o _.h.j.}.yX&X& [.M.qX].b.XXd.7.%Xe 4.m.%.A.A.F d q.] %.k.F F % gX-X&Xq.[  .] ] K 1 % 8 V a.4.5.",
"] } 0.t.' ' *.s.z !.$Xr.'.{.pXh J zXZX8X>Xh.X rXsX[.&XI 8X0X<X1X.X).!.8 k p %.#.s <._ o.` Q.1.J |.n./.v.<.~.^.Y v.|.B.{.^.y.&Xe.+.l l M.V.M.q.>X$ V.5.+.S 4 0 < qX8X$.[ ..~ %. .5.V @ K K k 5.d.",
"c././.(.l.{ @.| z -X1Xu.J | k 8.5.8.K 8 : X , wXpXyX[.h lX X}.{.).).E.e.p.L 1X.X$X1X].u.#.r.u sXsXdXlX$X].b @.6Xt.5.B.<.jX&X&X!.l.l k /.:.A.:.#.  c J C 3 3XF r j.n.o.~  .a k 0.y.L o S ' 0.a.D.",
"5.0.' 5.O.8.a.9.x j s.s.b V.Z.;XsX$.O.-XgX`.s.wXN.T.$., lX;X-XjXyXyXM.D 6.n.zXgX8XDX$XcXjXJXe.W.uXuXdX`.O.u.&.].g L <XyX.XjX9X!.!.8 y v.&.<.u.h # 8.g.j.2 |.U 4 , k 8 +.D 1 $ 2 - ; r i.] l.f.a.",
"#.j.Y.D D K.| w.l K &X+XL b.h.g 8 s sXrXrXW.yXg.rXwXO o gX>X X|.,X~.w , W.l AX8X}.<XqX<XdX-X&.wX{.yX).-XO.,XuXK z.&.!.lX}.$X1Xs.e.8 z XX&X6X6X7XF f.OXqXq n.l.m D i.U e U D.R F V  .8 9.w.s.x.t.",
"$.`.5.p { t.{ 5.+.l.oX#XV :X8X4XG.e.W.;.W.kXpX).7 y }.=XC.8.b.K J K k.b.@.8 yX|.yXyX X XiXd.{.1.dXyXE.|.`.~.).s.&.;.@.kX,Xe.t w t 9 &X].{.1X_..X1Xf.&XOX< $.M.$.:.} a.F 4 bXE W 0 - 3 K s.5.k.p.",
"n ; 5 i u i i y c 7 - ; O :XmX6XU +.W.W.W.W.Q.3.a.S kXgXfX7.7.&XAXSXSXSXt L y.Z.yX{.).~.g.#.uXwX/.v.v.jX'.^..Xz ^.;.5 !.J l !.e 8X!..X}.].,X,X,X1XG.e.h #.rXN.:.=...%.5.r W Q & r S.@XW A . O 1 ",
"C T z.K - 0.y.L 8 4.g 2 o ^.NX6X$ E.wX_ Q.wXpX3.-Xv jXlXsXC.R DXFXGXGXUXL PXJXPXNXAXdXv O : iXjXuX<.@.jX|.O.z % r O.Y.ZXMX4XU.f $XB.b.b.,X{._.].<X6X* Y kX).2.,.M.<.$.%.J N   o S.i.g.k.P o : #X",
"}.-X8XL.O ].'.7.K m.( c.S 5 %.+.8 eXE.uX).W.;.;.uX7 .XsXdX!.8.K H.p.l.<X1 xXPXjX/.].^.y 5.u E.rX^.l v XX%X3XK m C }  X;Xw.Z.J.f < | _.-X}.,X'./.yXNX* ~.wX[ ( =.^ ..( =. .V . R F.G.T l.Q o C >X",
"'.>X8XZ S 9.#.b y.[ =.] O 7 n z e {.E.aXW.wXQ.E.-.B %.9.b 1XlXz.2 S.%X9XD.b b 7 u.B.d.k.M 0 6.e.#XoX7Xv.T.gXj.0. XZ.Z.w. .M.H Y.U.* - i -X#X}.<X<Xz.4 pX^ ( ( ( ..( ..-.=.o.* H.S.I.Q E G   K ;X",
"3 v 8 t.2.{.v 5 %...5 l ).dX(.&.7..XE.aXW.wXE.;./.8.AXlX%XoX&Xz.8XSXZXzXGXLXNX3 JXPXSXDXN i.iXkXzX;XV.[.dXK.3 s 1.,.(.f | Y.w.A.M.A.k.% n v 7 v 8 $ *.wX=.( ) =.` ( ( ` -.[ K P.p.E E m * = 2 -X",
"c ; $.|.<.}.@.X 5 q.#.wX;.;.;.E.8 ).E.wXpXW.wXE.(.:XSXgX3XY #XqX2XlXAXuXxXGX8Xb PXPXPXZXf kXwX3.fXtXFX8XgXK Z.#X| { , /.tX) ) ( ( -.,.A.A - 0.#.O.  c.;.( ^ ) ) -.` ..[ [ | r h q D V &XP.S.0 H ",
"*.h u [.^.^.O.+ uXgXc.3._ ;.3.3.^.#.E.uX).aX).E.c.zXdXjXjX<X}.AXlXjXuXdX$Xg M r 0.{.{.h a vX,.2.tXT.hXZXNXf zXqX1XB + yX-.) ) ` ) ) ( ) }.f.< t.7 - uX>.^ ( -.;._ ......q.H i.I.I 2XS.&XL.I.I.M ",
"6 a O.).^.{.6.e N.zXj o.o.&.).;.~ b <.~.^.E.^.^.y zXkXdX!.6.w Y C h z @.}.-X].=XsXuXeXvX<Xb.aX.XwXb.q. X} a jXZXnXnX2 fX3.-.-.3.-.-.( ) <. XJ.& 9 b kXdX>.=.o.^ [ ! i i f 3 C P.P.r nXH.a.D.E p.",
"] a n ; 5 a { +.; l s.OX6XT F - 9 < 5 u a 5 5 5 < 7 < q L HXlXzXNXP d kXzXeXeXaXiXiXrXiXgXg.n l ] ] @.0.1 d V.y.4.C , uX-.=.) ) _ _ ( ) ) ..=.B XXr p v a 8.V 4 k y.B.y.x.9.. F P.F %XnXJ.K.I.S.",
": 7 Z +X8X3X% + n !.NX&X!.1XOXg L 7.L e K T A t g R BXDXS PXJXJXjXOXK cXiXaXeXpXeXeXpXyX1X# qXt 8 yX<X!.)./.}.].'.`.8 ).=.-._ ` -._ _ ` ) ) ( S 3XP.  sXlX'.K.M 5.V.V.Z.Z.4X4 f A 2 H 4 # o , w ",
"K.4X3XnXmXZXK.% p $X&X@.u.].w O O.@.l r.SXGXF.L nXnXDXBXr &.n.l.].F e .X_.~.@.@.u 2.^.~.u.@.].Y % {..X0.~.^.{..X'.8.b T...-._ -.;._ ) _ _ -.2.B 7.+X9 wX[.:.u.m p >.V.}.U.p.gX8XU.p.S.R p.E & R ",
"4X%XK.U.L.7X8XH 7 c u n 7 2 e z @.~.L 8 7.b 9.4.0XnXZX5X4 ].NXBX$X$XE d.j.AXPX#Xl aXPXzXjXcXcXcXI &.^.r.u.+.J C f s j.W.-.-.3.` =.=.^ 6 ; e q M Z & & [.gX`.J.m 5.M.>X=X:XK.7XJ.w.w.Y.S K K.A 4 ",
"+XJ.nXJ.3XZ.mX2X0 - !.9Xk.u wX).^.}.<X#XR 9 2 #.4.w V 4 d DX0X*X;X<XlX8X; aXDXJ.[.xXUXUXHXcXcXaX/.u /.z.1XlXlXjX}.$Xm h 2 9.V ' 4.Z U F I Y 5X+Xq.Z.N w x 1 O 9 R R g i.V k.+.k.hXh.Y.a.i.K.P.K.",
"K.2X%XmXmX=X8XmXbXg 9XNXqX' _.&.!.#X1X!.gX6XR $X;X8X XZ i.ZXmX7XlXlXGX:X: [.h.S vXxXSXjXjXaXaXaXwXy uXzXlXlX.XuX{.).j.#.4.1Xm.u.jXOXnXnXmXm  .q.o.%.4 X.c o D 3XP.mXG C i.&X| } L. .Y.x.Y.Y.h.j.",
"nX4X%X8X8X:XmX5X6Xj jX5X8Xe.].1X0X7XNX].jX-X6Xs.|.=XA.q h.7XmXmXzXJXAX5X- cX4.tXcXkXwXiXwXuXaX{.7 o ].dX}..X$X^.}.M.).r tXrXfXt.lXw.g.3XmX4  .| X.y.# 5., { hXh.a.8XMX0 h.:X} Y.a.Z.|  .| X. .w.",
"4X4X2X3X*X:X8X8X7.< ^.,X].!.e..XHX9X7X~.^..XjXY [.'.>X1 dXSXmXGXSXxXzX2X< t.1 vXvXaXpXW.wXQ.p ~.1X&X.XjX.X.X~.^./.7.L M 4.d # u tXt.i.D H 3 Z.Z. .q.M O  X<X8X8.y.'.mXG 8.U.Y.l.x.L.U.w.| } A.q.",
"2XnX3X%Xa.p S 3 < + - 8 - 6.^._.}.}.,X1X~.uXuXy hXU.x.$ q.9.z 8.8.O.6.9.A p.& | #.$.&.o.%.y 9 aXjXrX% c O.z h z '.9X5X5X9X6X+XM a p f c x.B 5.M.>.A.J.& V.fX3Xf.H.t.A   9.Z.i.=XC.C.a.w.x.+.%.q.",
"i.f - , - x R 8 y.0.t.XXi.k -Xn.|.ZXlXjX}.&.; + *.f 5.#X8XK.I e *XnX>XAXZX8X& a.3X&X`.B.$X@XoX4.@.c C ]..XlX+X0 lXZXlX1X0X:XDXP.e N.iXfXAXi.u  .^ A.A.m # 2 y s Z S.P.Q 4 hXL.K.D.w.q.J.w.q.w.q.",
"@ 1 a.0.[ ^ C ' C.B.Z.Z.*Xa.  O ; ' *.p 8 $ ' vXuX).iXfXgXgXgXx.9X8X3X0XJ.%XB 8XmXmXmX5X0X0X9X+XZ s (.uXjXkXzXe 9X0X*XqX;X>XVXbXP.Y.fXSXmX1 Y.X.X.q.X.Y.G k.*X8X4X4X4XW 4 :XY.x.i.L.J.$Xl.t.y.C.",
"| X.$.:.X...c i -Xb.[.b.Z.z 7 %.} o.v.N.1.(.l kX}.<.uXdXgXhX5.x.;X*X].0XJ.C.S 0XgX8X$X7.O.{ k 7 2 g.).1.rXiXuXS XX9X<X7X;XgXnXP.P., cXJXL.S Z.A.Z.X.X.h.m w.8XJ.4XK.U.K.N D.x.k.a.K.U.C.l.Y.5.q.",
" .N.X.>.A.,.5.X 5 8 , < 2 2 s uX(.N.X.X.^.<.+.sX~.E.uXc.S V U Y.wXv.m.w.S V h Y.d % + % 7.2XZXNXbXj.:X~.v.V 4 w 6.ZX-XnXU.mX3XbXK.X tX[.# w h S Y.k u f p.d gXU.K.U.U.d.m 9.x.Z.i.4Xi.U.g.5.y.w.",
"%.]  .=.] v 3 8. XtXtXrXsX|.q <.>.c.>.,.1.X.Z.7 l h I *XSXGXUXP.2 f B.k.w.X.( ..,.M.i.s kXcXSXHXmXj 5.p.%XbXP.m q.3XgX:X3XnX6XnXP.* A.i.G I E I.P.P.K., h.D 3 y 2 1 H G N R b.U.4XS.f hX=X9.0.| ",
"3 : } q.V.<X:XD 1.tX;XA.lX}.O  ...[  .-.N.A.Y.p.8XIXGXvXvXvXvXGXF 2 wX>...( _ X./ / / c w.aXzXNX+Xi.gX|.hXHXoXE f Y.:XU.8X4XK.K.G.4 dXgX;X;X:XI.P.I.P.# Z.U.m Z.D a.x.x.a.G.d *XU 1 w.n.q.k.a.i.",
"5.+.*X3X=X XdXU.m.sXhXAXgX%X# 5 > u 5 ' N.fXDXKXFXKXuXT.zXaXeXtXmX2 ( ( [ ( ) R.R.) ,.>.5.x n e.<XtXfX{.yX-XV.3X# :X8XmXnXI.I.3XG.N B.rX;XgXU.F p.S.I.# U.I.D Z.Z.x.w.k.k.K.= % o % q m A 4 < 1 ",
"D 0.*XU.2X0XsXmXu N.>.>.A.J.1 #.x.F U KXNX<XUXmXM.tXT.lXfXfXeXT.pXf ) ^ ( ,.` ) R.) 3.[ 1.$ j uXyXfXtXfXyX-XsX&X1 U.NXp.a.L.U.gXMXE q S dX|.<XW Y.E N o mXI 5.X.q.w.l.w.x.W U oXF.f.k.=Xx.D D M ",
": #.3XJ.2XK.>XZX2 T.>.,.M.8.h | Z I LXDXZXzXGXhXAXZ.uXSXtXkXaXpXT.y.( ^ ^ ^ / ( ) -.` ;.0.4 sXuXtXtXrXiXfXU.Z.U.x.V U.D.U.3X8X:X5X+XD.@ 1 Y.t.C D G.&   S % b.A.w.Z.w.y.K.G h.q.w.a.k } 9.p.i.E ",
"u ; q.].J.d.x.Y.X ' i v V 2 o 1.A.b.dX9XgXpXAXAXzXzXJXgX,.uXkXkXdX8.[ ^ ! > ! } k i.q.ZXS.S iXuXrXpXuXN.dXZ.Z.3XZ.o ;XU.K.3XU.>X%X9.H K.&XM f V.hX:X4XQ # 2 V.c.>.Z.B.k.k.A h.k.w.Y.D 5.c D.F E ",
"D.f 8 *.l z s x U.q.>X:.[.Y f i M.| fXgXAXiXT.fXT.T.fXgXdXhXUXlXgXT h ' i c.4 a.AXSXr h.C c SXfXpXiXtXtXhXA.<XgXgXX f 5.A.Z.x.w.r O o C F r >X*XhXgX&XN o c Z.B.Z.h.nXoXk.M h.a.| i.a.S.i.p.U B ",
"L.i.- } m.n.=Xl.B.c.} o. .%.F 7 %.< V.N.iX3.3.fXzXpXzXAXAXdXSXFX4X6X+X+XU.0XH B.lXgXZ M.c.w -XfXwXpXpXtXtXZ.U.Z.x.4 H p.4 , 5 ZX9X#XoXOX4X& y x $.tX4XP O C.%.[ =.k.#Xg.oXN }.U.y 1 f 1 # V D.B ",
"I.D 3 ! y.$.b.`.t.$.q.' u z [.A.,.2XO wXvXeXeXeXfXT.iXAXAXlX<XGXT 9.Z.V.;X>X7 b.B.D 9.JX,.` v | (.v.#.p u | 8.mX3XNXNXNXG V <XY.q.b.#.q.w.$ Y.J.A 7 7 4 o h.q.X.] Y.Y.V q X k 2 .   X #   O , Y.",
"S.4 | 1 '.$.m.h.&.O.- f V.=.=...^ hX2 : hXtXT.V.A. .M.M.r.%.jX7XG A : u i Y.y.s.I E C vXpX,.3.h S g.i.9.zXlXe :XU.gXU.8XP & L.h @ f v V.Z., 1.xX3X8XF.G & f f f 4 0 M Z L.d dXa.a.p.L.U.f 7 # 8X",
"2 m E 7 0.l u u 2 8 Z. X[ [ c.>.A.hXf V *XF 4 4 1 3 nXF 2 d %XB.}.0XZ ; AX8X9XmX4X3XZ (.A.r k >XlXjXuXm.hX%X% :X3XhX:XmXnXK.I A & B U.H h 3 wXtXy.b.q.Z.P.N x.S.G k.Y.Q K.V gXgXNXK.J.U.p., + 3X",
"i.c | i.s - <.N.7XU V.tXM.[ hXV.A.gXh gXAXAXmXnXU.h.U.U.mX0XgX|.V.7XS.+ 9XnXmX%XK.L.9.tXwXU.D. X;XsXwX-.1.C.= U.U.U.:XU.4XmX4XK.+Xi.ZXnXP.H ,.gX'.%.V.B.U.S.4 Y.w.w.p.P.I.w 8X3XU.P.K.d.4 3 3 3X"
};
