/* XPM */
static char *result[] = {
/* columns rows colors chars-per-pixel */
"96 64 241 2 ",
"   c #3B2626",
".  c #3B3237",
"X  c #3E3030",
"o  c #371E1B",
"O  c #4C2E2C",
"+  c #452A28",
"@  c #562E2A",
"#  c #4D312D",
"$  c #5B322E",
"%  c #55322E",
"&  c #432F32",
"*  c #443334",
"=  c #4C3434",
"-  c #4D3B3B",
";  c #483939",
":  c #543534",
">  c #5B3533",
",  c #543936",
"<  c #5C3936",
"1  c #543B3B",
"2  c #5C3D3C",
"3  c #563639",
"4  c #66342D",
"5  c #76382D",
"6  c #633634",
"7  c #643A35",
"8  c #6C3B35",
"9  c #633D3B",
"0  c #6B3E3B",
"q  c #743C34",
"w  c #733E3B",
"e  c #7B3934",
"r  c #622F28",
"t  c #53413D",
"y  c #5C423D",
"u  c #63423E",
"i  c #6C423D",
"p  c #62483E",
"a  c #73423D",
"s  c #7A433D",
"d  c #764339",
"f  c #4A3C42",
"g  c #543E42",
"h  c #5B3E41",
"j  c #633F41",
"k  c #703F40",
"l  c #4D4144",
"z  c #554343",
"x  c #5C4343",
"c  c #5D4649",
"v  c #5C4B4C",
"b  c #584847",
"n  c #5E514B",
"m  c #5A4D52",
"M  c #5D5355",
"N  c #644443",
"B  c #6B4443",
"V  c #644A45",
"C  c #6B4A46",
"Z  c #644549",
"A  c #6B464A",
"S  c #644B4B",
"D  c #6C4B4B",
"F  c #734543",
"G  c #7B4642",
"H  c #734A45",
"J  c #7B4A45",
"K  c #734C4B",
"L  c #7B4D4B",
"P  c #72464A",
"I  c #64524C",
"U  c #6C534C",
"Y  c #6A544A",
"T  c #74524D",
"R  c #7C514D",
"E  c #76584E",
"W  c #634D52",
"Q  c #6C4D51",
"!  c #734E51",
"~  c #7A4F50",
"^  c #655353",
"/  c #6C5353",
"(  c #6C5B54",
")  c #6C565A",
"_  c #6C5C5B",
"`  c #655958",
"'  c #745353",
"]  c #7B5454",
"[  c #745C55",
"{  c #7C5A55",
"}  c #74565A",
"|  c #7B5659",
" . c #745A5B",
".. c #7C5B5B",
"X. c #6F6159",
"o. c #74635C",
"O. c #7B645C",
"+. c #7C695E",
"@. c #756359",
"#. c #755D62",
"$. c #7B5C61",
"%. c #6D5C63",
"&. c #746563",
"*. c #7B6463",
"=. c #766964",
"-. c #7C6B64",
";. c #7C6C6A",
":. c #77696B",
">. c #7E726B",
",. c #7D7171",
"<. c #726567",
"1. c #883B34",
"2. c #883C30",
"3. c #84443C",
"4. c #894439",
"5. c #96493B",
"6. c #984837",
"7. c #A64D3B",
"8. c #B7533C",
"9. c #B54E38",
"0. c #814641",
"q. c #834B45",
"w. c #8B4C44",
"e. c #834E4B",
"r. c #8B4E49",
"t. c #884742",
"y. c #924D43",
"u. c #954C44",
"i. c #8D5046",
"p. c #84524D",
"a. c #8B534C",
"s. c #845349",
"d. c #945145",
"f. c #9B5144",
"g. c #93544B",
"h. c #9B564C",
"j. c #9B594E",
"k. c #955A4F",
"l. c #835553",
"z. c #8B5552",
"x. c #835955",
"c. c #8C5A55",
"v. c #835B5B",
"b. c #8B5C5B",
"n. c #855759",
"m. c #915651",
"M. c #935B54",
"N. c #9B5C53",
"B. c #935D5B",
"V. c #9C5D58",
"C. c #824F50",
"Z. c #A65648",
"A. c #B55944",
"S. c #A35D52",
"D. c #A85C50",
"F. c #A04E44",
"G. c #84645D",
"H. c #8B615D",
"J. c #866A5D",
"K. c #93625D",
"L. c #9C625C",
"P. c #996057",
"I. c #A5635A",
"U. c #B56354",
"Y. c #835F61",
"T. c #836463",
"R. c #8B6463",
"E. c #836C65",
"W. c #8B6B65",
"Q. c #846D6A",
"!. c #8B6C6A",
"~. c #80656B",
"^. c #936362",
"/. c #926B65",
"(. c #986B68",
"). c #84736C",
"_. c #8B736C",
"`. c #8B796D",
"'. c #857266",
"]. c #93726D",
"[. c #98746B",
"{. c #856E71",
"}. c #857472",
"|. c #8C7572",
" X c #867974",
".X c #8C7B74",
"XX c #8D7D7A",
"oX c #85767A",
"OX c #927573",
"+X c #937C74",
"@X c #9A7C75",
"#X c #937D7A",
"$X c #9B7976",
"%X c #A3716A",
"&X c #8E817B",
"*X c #938176",
"=X c #93837C",
"-X c #9B847C",
";X c #9B877C",
":X c #A7877D",
">X c #B08A7E",
",X c #8D7F80",
"<X c #948482",
"1X c #9B8682",
"2X c #9C8B84",
"3X c #9C8D89",
"4X c #968986",
"5X c #9E918B",
"6X c #9D9187",
"7X c #8E8181",
"8X c #A28C84",
"9X c #A38D89",
"0X c #A88983",
"qX c #A39186",
"wX c #A4938C",
"eX c #AA958C",
"rX c #AB998E",
"tX c #A8978C",
"yX c #B99689",
"uX c #A39692",
"iX c #AB9B94",
"pX c #AC9D9A",
"aX c #A79893",
"sX c #B29C93",
"dX c #B59E98",
"fX c #AEA19B",
"gX c #B3A39C",
"hX c #B8A59B",
"jX c #B5A6A2",
"kX c #B6A9A3",
"lX c #BCABA4",
"zX c #BCADA9",
"xX c #BAA7A1",
"cX c #BEB0AA",
"vX c #BFB0A6",
"bX c #C3B2AB",
"nX c #C8B8B3",
"mX c #C5B3AC",
"MX c #C4A195",
"NX c #D1C2BD",
"BX c #D4C6C0",
/* pixels */
"4 4 4 r $ 4 7 7 i 1 uX'.K { ] R J R R { p.[  .N / [ ] K K H L u J s.T C u x C S V x N [ .X#XK ] { | l.x.x.c.C i B R K J d 8 i s J J d a C E 6X[ | ..| { ' U [ T S T C c y p x V C C < # = y I i ",
"@ O O + + O     : & 7X[ 2 2 u R R C K i 2 v I , 1 2 9 : , 8 i F d s.s C C u x x z T D C ).=Xu V N V B B i y N u < i 0 > < d p $ % 7 a < < p  X& z - * - 1 t t 1 t z z z ; ; * ; t t z z t * X.- ",
").wXsXtX2X2X3X5X&X&XfX=XXX7X}.E.E.Q.E. X&XuXhXuX2X3X2X4X2X5X4X=X2X*X X-.=.>.|.).;.-.E.&.5XiXX.=.>.+.( +.=.-.X.=.-.-.).).>.).E.+.&.-.+. .@.qXtX.X`.).).`.*X*X;XtXwXqX4X-X;X;X;XsX6X;XtX;X*X'.'.+.",
"H U U Y -.wX XXXXX+X*X_.Q._.).,.&XwXW.$XeXeX8X+X_.).;XtXhXW.J.(.J./.%XP.[.[.-XiX*X&.W.E.W.T. . .o.T.XX=.E.;.o.X.+.+.).;.'. X;X:X[ @.J...G.{ J.J.y - V -.D H N F H 7 i u C u I *XN a d d u % # % ",
"J H u < v  XS D / ' } | D D ^ ^ %.+XG L K L H L ] ] Q ' @XN p.i.r.i.w.w.3.4.d K.Z H ~ z.n.C.| v...Y.1X) F J u i C : x T V { *X#Xh Z P L ~ K L k i t c +.u q.L B H F K D H F u 2X% d 7 7 7 6 % 6 ",
"i a 7 - M |.D Q ' / ' ] A W | / } ].L L J P F k 2 2 1 c @XG a.i.f.d.d 2.4.4.3.`.Z K n.n.c.b.~ $.$.} +X2XJ J F K L K B T E { OX).Q ! K A P F 0 C H ) ^ |.H L H L K P i L R L 2 ).O $ d 6 $ > 6 % ",
"@ # # * m .Xf z b g x y - , g 1 M o.O = 2 N 3 1 , = g ` =X1 < 8 a d i 8 w 7 @ '.Z 1 , 3 : 3 = & g & v ).u y < y 1 x Z T T c E.;.# , : 9 B k 7 k u y c =XD B u V S , 2 u A y - <.* t , p n - n Y ",
".X3X3XfXkXvXaXfXgXwX=XpXpX1XoXXX=X2X>.<XwXwX<X3XaXpX5XaXnXtX5X3X=X2X7X=X.X=XqXNXnXaX4XXX).:.^ &._.:.*X).n E.=X2X*X*X*X).).).gXlXuX=X.X#X X2X#X).+X-XrX:X8XeX9X-XXX-.+.-.W.-.`.&XOX`.'.`./.eXG.G.",
"C H K { K T J L H L 2 }.+.' x.v.' U S ^ ^ ) 3X;.} G.{ J.O.N V ' ] R.G._.W.T./.J.W.R.R.[.bXqX0.0.r.J K L c.a.i.s.e.R J Y y u q.T ] ' ' ' ' /.#Xl.l.L P G q.e.K L t.g.p.R s.a.k.c.i.a.J a G x.c ] ",
"0 q 0 0 s s s s s 0 0 ` -.C L ] l.] ' | ] V E.h D C L H J s.J J R p.J G L q.t.B J G e.G N 1XL m.h.L w.r.g.a.d.5.w.4.i.J 7 u h.N.c.c.a.L T H.1Xc.b.b.L ] r.w.q.w.d.k.i.r.a.k.g.g.j.g.r.q.s H V L ",
"d 0 w F s G G G F w B %._.p.p.K N N ' U C h E.Z D x.z.p.a.g.q.q.L g.3.G q.e.a.g.i.t.q.J B 0X0 G e.n.' ~ l.z.p.j.j.j.s.J H R k.M.N.K.M.L H E OXM.M.p.' R r.w.d 8 d G q.w.i.g.d.h.g.g.d.q.J H z L ",
"> > 3 : > 7 0 < + X & ` I # + ; = h g x 1 - }.! ' ' a B : F F F 0 8 i d 0 s s y.s q.t.J 1 8X@ + o       + O % O O $ O   # 2 u B N 2 1 y % [ / % +   7 4 8 @ 4 4 r @ $ 4 4 5 q 8 4 % % + + I I 1 ",
"o._ -.&XoXo.o.=. X;.=.5XwX).).o.I b n n n X.=X^ I ^ @.X.;._ I I U X.=.&.-.-. .[ @.X.U X.>.gXiX1XeXrXwXsXiXiXwXwX6X=X2X8X2X*X*XE.@.).OX+X*X2X*X!.OXOX'.`._..X'.'.`.`.;X+X+X;XeX+X|.2XXX_.OX*X#X|.",
"T.E.W.E.Q.zX2XXX=XXXOX@X*XXX;.:.Q.pXiXwXXXXX2X-X1X2X=X2XiX&.=.).&.;.{.!.W.OX#X1X-XD A A L J p.e.z.L ;XwX_.!._ | M m ) I [ D E.8XD ! ' { l.l.~ ! R u @.qX .T.H.x.p.L R H F J |./ Y./ ! D ! K ~ } ",
"6 8 8 7 : 5X' L D ' K K A / | ^ b =X= < N N B B s P P U 3XW K ] ~ b.v.b.K.K.Y.!.).Z ] ] K l.e.q.e.q.[.1Xv.v.R.G.G.' ] l.n.[ S +X/ Y.] n.^.] | L l.C C =X ...p.q.R w.H F , 7 / / v.D ~ ~ K K | ~ ",
"h 0 6 6 % XX/ Z L L K Q ' l.D Z z 3XN C K C D D K F L H 2XS ' G.R.R.Y.(.^.^.(.T.Q.~ L j N L a.r.0.r.l.OXb.b.b.b.x.c.b.l.b.b.] 2XQ n.l.l.n.z.l.K H l.U ).} v.T H H s.s N C u ( N ] L P D H A F A ",
"* > % @ + <X .K C.L K K H ' C c ^ aXx j D Z B u B C H N <X. Z ' | ] ' ] ] K u c n + = 1 - S R F 0 7 = _.R L i H V 2 A x y y , 2XZ - , , : < N 2 , u o.1Xh V P H i H i H a i .X( +.E I I z y ( X.",
"=.Q.|.<XuXlX<Xo.E.Q..X X X#X-X2XlXnXuXwX3X#XXX=X X)..X#XnXcXgXiX1XXX`.).).).).=XcXjX2X3X&X X).=X<XuXiXhX=X2XtX2XqXtX=X*X|.6X*XgXiXwX2XrXwXrX1X=X8X0XeXiX#X9XqX*XW.E.`.:X;X#X*X:X@X_.;XOX'.'.tX1X",
"T./.T.T.Y.]./.W.(.[.R.3XT.' | G.l.J./.H./.:XxXQ...G.v.{  .U U T [ ' ..D I 1 z E T ..] |  .rXW.W.'.].M T.[.(.K.R.K.b.P.c.e.s.J C z v I I c :.b v D T F L B H B F F H L p.C z.L L r.H P Z K C <.x ",
"B H K G r.G r.e.z.l.1 ;.P J G q.3.i 8 6 w 0 aX' ' D D N H K J K K C B C H u = 1 ! K K ] ! wXM.j.g.M.c.b.x.P.P.L.P.L.b.P.I.M.S.k.s.q.M.H.B.R./ < B a L z.l.z.] ' L C H e.e.e.J J L F F Z k C X.x ",
"i B F q.G e.L r.e.p.g M N a G r.t.J G q.r.G  X] L H ] ] z.z.n.L L C K R p.H B F F S ' v.' 1Xl.N.L.M.H.%XK.P.K.L.L.k.b.M.x.b.P.M.c.g.P.L.L.%X .! l.l.c.n.l.] ! D K N L e.q.e.H L G G J G H B &.- ",
"G G P J e.e.r.L L T &  Xt ] L L G s J i 8 7 Q.9 N N j g H i N j C N i N N h x C H u 2 A Z |.N K B B Z N x u V T R R { E T U Y T E R s.x.x.@X;.Q T T C K V C C N V y N u y 2 , y 7 9 y B y 1 _   ",
"E.-.-.=.&.*.E.Q.-.o.>.xXgXhXqX*X|.=X|.).4XqXgXiX3X5XwX<X9XpXzXmXnXnXkXgXiXrXiXwXiXaXwX1X8XmXbXlXhX=X*XwXgXiX2XwXqXrXbXhXhXgXhXlXlXlXhXfX;X:X0X@X:X@X8XlXtXaXrXqX8X2XqXqXqXqXqXeX[.E._.*X*X:X8X'.",
"S D Z N / 2X} W  .v.' ' T L L G.G.pX=./ / |  .] | } $.#.XX.X#.^ ^ } #./ } _  .#XlX[.(.H.n.B.$.^.G.!.W.8Xx.K.H.H.L.v.v.x.x.x.H.2XT.] K H B l.C.L L < 9 eXv...W...' K ] D l.] D `.< 8 d d 2 0 w i ",
"N F F a 2 }.A ! K H C 0.y.w.f.i.4.-X .A B K L l.l.L ! #.;.8X~ } ' ~ B L C.C.n.C.eX} n.B.V.I.^.(.^.l.L gXi R i.j.P.I.I.k.c.N.b.OX} w P ~ r.B.m.r.a e.e.0Xl.' P ' ! A L | R.~ L -X9 > 7 8 8 w w q ",
"A H L F j &.A A F K J w.Z.5.5.y.i.].^ D K D K.c.K ' ] Z *.@X~ ~ | K H ] | ~ n.C.#X' c.K.L.L.L.^.B.z.L hXF i q.j.S.S.h.k.a.P.p.W.v.q.H q.z.M.z.r.e.r.L _.z.! K v.' D K ' | | l.+Xy @ $ 6 > 8 w w ",
"B F A 9 = :., & + 6 e s 4.2.1.8 4 o.I 1 1 2 H 2 ; & = = :.].9 N x c N K Q W Q j 3Xk H A ~ L L L ~ e.u gX2 i u i q.d.i.i.L y x I G.B V C F k N 2 x N 2 .XN N 1 2 1 : 1 = 1 2 , @.2 8 8 9 :   @ $ ",
"o.` ` o. XiX2X2X2X'.*._._.E.=.Q.|.aXwX}.2X;XXX2X*XXXwXpXnXbXwXqX3XqXuXXXXX).XXoXbXhXpXiXpXaX9XaX|.XX.XbX&X-.>.E.-.'.`.OX+X.X+XyXMXeX>X>X:X3XaX9X#X@X:X=XE.OXqX8X8X+X@X-XeX-X8X8X3X8X2X#X#X:X*XE.",
"E L u u 7 u C j N h ) 5X_ Y.C.C.x...v.~ C.L Q 4Xx b v ' b.K.R.(.[.[.(.[.(.[.v.Y.l.c.b.| | Q.jX*...' L { v.G...c.c.c.j.P.j.h.7.7.5.4.5.j.z.] ,XK.b.c.e.e.p.r.e.t.a.g.r.g.r.e.e.l.v.A F ~ B C sXv ",
"H J d F G H T K K c g }.j G r.C.l.e.P K K ~ / oXm ' K b.l.L L z.g.z.p.M.M.a.M.M.B.M.c.b.b...uX| v.l.T ' R.v.l.a.5.3.5.5.5.f.7.7.7.7.Z.A.D.b.$X^.I.S.z.r.m.h.D.S.D.D.h.d.h.g.r.t.0.e.e.C.~ j 8XS ",
"i i i N C H N N N Z f XXj F P F L L L L K h c ,.} v.^.v.l.n.z.l.R ] p.a.L P n.R p.n.K.K.L ..3X| v.{ ! C E l.P.J.J.3.k.Z.U.U.U.Z.Z.D.j.i.h.L ).B.V.N.r.g.k.h.Z.S.Z.D.S.D.f.h.r.r.e.y.r.r.L F T.- ",
"1 u 1 : : 1 , , > , - =X= 3 2 2 < < 3 2 2 1 %.&.2 A N x x C C w j 2 9 i H 1 2 9 y u A N N &.9X~ ] l.p.l.C i V s 3.R k.5.5.d.4.d 4 4.i.J 0 , -.[ / V N h p C u i F 0 7 7 F 0 7 < < 0 B P j = ^ X ",
"&X4X}.}.5XkXkXfXqXaXkXjX=X1X2X9XpXkXjXjXpXuXpXqX=X<X1X*X*X1X2X1X1X#X#X9XpXpXpX-X-X). X=XXXfXjX|.XX#X=X9X#X#X=X2X*X XOXXX XQ. XqXE.W.O...@._.+X!.;.E.;.#X|.W.W.{.OX|.0XOX!.;.+X-X@X;X+X.X#X`.9X*X",
"N B j B K ;.D T T D A Q } ] | ! . uXZ Z Z h Z A Z A W ' XX) D H P K ~ ! ! ] | | .XY.v.n.} ' C.l.n.Z ) 8Xn.' v.] ! | v.v.' / ..0XA K ! ~ ' ~ ] l.n.n.D Q.|.C.C.C.C.e.z.C.e.B B |.' ' [ K H > N N ",
"L F 0 0 N Q.' ' l.] ] n.l.] ] ] W pXA ! j h A K ' ] ] ! }.} K n.l.n.B.b.v.v.v.*.!.^.^.^.B.b.B.^.V.Y.} 9X^.R.{ ] T l.v.' ] K | ;XT e.] ] n.| ! ~ l.A P O.#.D f - f h ~ L J L B !.l.' K 7 N u N K ",
"k G G G 0 v.a H ] ~ l.| ~ ] ] T A pXP A j j P K l.' C.j }.' z.] n.v.Y.Y.n.b.b.T.W.n.B.l.n.c.Y.(.B.n.$.#X..v.H.v.^.H.H.| v.| v.+XL e.l. .z.l.L k B F l. .W , ; . . v b & = j x -Xu.' D C K C S D ",
"6 > $ # : z , y y V t x 1 1 Z v S uX^ ` _ Y / C / [ T Y 8XS 2 2 9 9 u y F B < v )./ I z / ` _ _ / S  .*.y N A B N A u 9 < N 9  ./ C U x t t V I A C V '.>.; l ; X t y @.T U OX;XN 1 h x Z N Q Z ",
"4X=X4XwXfXkXfXfXgXgXxXcXjXcXcXzXnXnXnXbXnXnXnXxXpXgXlXlXBXnXcXgXxXpXpXxXxXpXbXnXnXlXxXlXlXjXnXbXzXzXnXbX9XhXrX2X_..XrXgXsX8X;XgXdX8X2X{.).OXrXqXsXiXOX:X0XyXMXyX>XyXyX>X0XhXdXgXgXhXtX=X*X-X X-.",
"u # , = , ' u a L J H =Xc / S K l.z.p.c.z.p...<XQ K e.m.] ] p.c.c.a.s.a.l.M.c.c.B.c.a.e.p.D 3X] P ] v.' q.L s.a.p.b.R.K.B.c.' l.c.M.Y.b.c.G.OXv.v.K F a.D.Z.7.A.A.A.A.Z.f.5.5.q.w.s.K B K E.:.x ",
"i w d u 8 i s q.G q.i oXN ' ] L q.y.d.g.h.d.L Q.n.M.m.c.L.x.z.s.q.l.c.k.k.P.P.M.M.N.g.S.a.e.<XN C.z.] b.N.N.M.V.M.N.V.B.N.z.g.m.z.^.b.B.c.H.$XH l.z.y.f.A.A.8.8.A.8.A.8.8.A.7.f.t.r.g.a.s.G.=XH ",
"i i i s i i s 3.q.q.u }.S T T R q.4.i.i.i.d.J =.H z.z.~ ! L M.s.c.b.b.P.P.L.L.P.I.I.U.I.j.L &.f K ' l.c.^.b.B.I.S.P.N.m.z.a.m.N.B.b.b.K.c.b._.L c.g.f.7.Z.7.9.8.8.9.9.9.9.7.6.6.5.4.r.w.q.{ ,.' ",
"u < 9 , 7 < 7 i 7 u , .X( I ' C T q.H H R s.V *XN j N u y 2 B N B p u V H 9 i a q q u F F 0 ^ S N u G H K T K n.l.R x.' ] E ' H D T H T B O.=X2 i F F s 4.1.6.6.6.6.4.2.5 2.5 2.8 @ + < u T >.z ",
"`.&.:.<.:.<XrXwXfXiXjXcXbXcXzXcXvXkXkXfXfXiX3XjXaXuXxXgXhXgXuX1X<X9XqX2X3XuX<X<XqX).+.o.,.oX9X,X;.}. X*X8X X,X#X=X.X#X#X{.|._.OX1XW.(.].[.!.-X!.OX@X-X:XMXrXqX9XqX;X;XtXiXsXqX+X'.`.+X'._.`.XXv ",
"y N b N z =.=.* b Z C D D H C y z ,.uX} #.}  .} S W v ^ oX}.Q Q ! ~ ~ L v.| } E.XX` }  .} #.} #. .$. ..X1X} :.#.#.$.Y.R.R.Y.R.T.{.k r.r.J J G L J a.M.M.=X[ #.v.}  .' E / $.&.wX^ / D N W g N Z ",
"2 Z x D C %.).X B K A T ' ! C S v 7X&XW Q } Q | D A N Q ) |.......b.b.b.] l... ._.) } } $.} #...Y.R.#.1X2X/ $.$.#.! ..T.Y.$.$.^.].q.e.P P F G G q.e.z.r.XX..$.n.v.] | | #.$.$.@Xx Z Z N N 1 z Z ",
"9 j x 2 & m <XX B i C B K T / / v 1X,.D ! C.Q A / n Q ! / Q.] ..] ] v.v.v.v.Y.*.|.' ' S c ) $.) $.Y...#X2X' | #. .' ..| ..| } v.OX3 k L q.F P C K l.P L E.] n.] ] ....] Q | ..8Xg 2 N A N j 2 N ",
"-.Q.&.X.,.5XfXo.-.E.-.*.@._ ` I ^ 3X Xz x t g x l t t ; f l t z - - 1 - g - ; ^ 5Xv ^ ) E. .S t x N S ).eX ._  ._ [ ( } O.o.o.E.hX&.-.*.*.G.T Y C E N y 2X/ / / D ' D D D S D -X .; 1 t 2 1 , = ",
"-.T.!.{.[ Q v.[ Y.|.].4XfX=XoX,.,.&X1X<XXX<.}.<XkXcXgXzXcXzXgXqXiXhXxXfX5X=XaXuXpXhXbXzXzXjXcX<X .:.@X0X0X+X!.$X$XW.(.[.[.!...!.!.!.OXOX#XOX-X2X|._.Q.`.sXeX9XXX X1X1XXX8X9X=X2X<X=X|.&X&X*X.X;X",
"G q.e.L q.L e.L e.P G g -.g 1 1 z x x 1 g c v 9X_ b A C C s T H H s.J t H s s d J K H J l.P fX$.} n.b.m.e.q.g.N.N.g.f.S.I.w.6 c.L.(.b.v.Y.n.E.|.R x.b.b.x.] s.L R C ! T ' H K D Q K K l.l.K _.XX",
"F F q.L L e.q.e.q.a.a.N _.j j N Z Z N x A K N ,.[ a.i.k.g.i.i.s.g.g.i.i i.a.J K L K E R p.~ 3X/ Y.R.L.n.M.m.V.S.S.S.D.D.U.d.G s.I.I.^.b.v.n.| .X' { x.] K E ' R L F K L L B H K ] L B ~ ' ' T.v ",
"F i F F q.p.e.L P L B 1 o.1 N B P 2 j C A D N o.G.a.a.R p.a.i.g.i.q.i.a R s.a.k.L J R R B F 1X} v.^.I.^.z.a.r.r.w.w.q.j.j.w.a q.V.B.^.Y.R.l. .}.N T ' x.' ' ' K T R { l.a.0 L H G K j N H N t   ",
"'.=.o.[ o.@.[ ( ( ( I ` >.n ( / Y I / ^ X.o._ ).).Y C I V V C ' E E E d d d s a d d q 8 7 t xXQ. .I D U V t V C Y V S U T V I T E @...} O. .-.).V Y E U I V V z Z N Z V K 2 A [ ' A = 1 g N ( : ",
"K A ~ K A |.}.T.!. .*._.$X]./.R.R.aXpX<XQ.*._ Q.Q.*.:.*.4XpXgXaXlXzXfX5X5XuXiX3X=X*.G.{ ] $X0X$X].(.,XdX0X<XpXiXuXrX1X3X&X1X0X|.aX#X:.#.*.*.|.,X!..XOXrX<X|.eX8X8X=X;X;X_./.+X;X|.*X6XqXwXwXhXfX",
"w w k 0 j :.G.k F G 0.G q.d.5.3.q 1Xj K F L A K P B K N ,.) W z z Z A I C U U _ -X3.q.r.r.h.r.D.r.q.9 8X' Q S Q Q } ' ' E T | v.oXh g h j h j 0 0 7 9 [ | q.i.i.i.w.y.y.u.w.4./.=.D N N u 1 1 c ",
"8 8 8 9 9 #.W.B w w q.3.q.0.3.1.q @X, P K H ' L K ~ ] K :.M ) } W U / U U K K ! +X0.h.h.h.S.d.g.j.f.G xX[ C ] x.l.~ T l.c.l.b.] {.= h h j 9 G 0 7 6 3 } H.y.y.u.F.u.u.5.1.5.4.s. .] C P J B u i ",
"6 6 8 < 2 ;.E.0 6 F G s G s w q e T.- 2 P D x 1 B N A N #.m W g 2 B A D D K K Z .X1.t.u.r.t.u.h.Z.h.t.xX' R R c.b.b.l.x.z.N.p.T ~.& 3 j h 3 < 8 > > > ] g.Z.f.Z.F.5.1.1.1.4.6.l.Z C 2 i B 2 7 i ",
"6X=X2XfXzXzXqX). XQ.;.o.).).-.'.).|. X` -.>..X`.( ( X.@.).v z I Y N x V V S S y  Xi i u J C C C { T { hXE.S [ { O.G.J.[ [ [ ' @.iX&.O./ Z U U U V u D +XT q 5.5.1.3.e e e 1.e D b = x V i B C N ",
"M ^ ^ m m m M ` ) ` ` ,XkX=.) E.#X9XuX1X#X].}.5XiXuXpXfX5X3X4X2X3X2X<.;.).<.` 5XbXsX:X( XX4XXX#.{.;.|.#XQ.E.T.Q.E.{ _ o.,.O..X9X9X2XeX,X8XhXbX<X=X<X3XxXdX3XuXdX9X9X1X2X#X!.).*XrX/.J.E.'.J.G.O.",
"y b 1 c S N A V D z c <.uX- 2 C ! ! H D L H c 4Xv l b c c I c S N N b g y x Y ) S c Z c v  .&.Z ! A B G F K A B H G F G 0 H G i G a w w k 9 xXQ S x h A A 9 k C k F A N c D D v / Z A k N @.<XZ ",
"1 t t D Z Z c D / W c ` <X0 w w.J K D c A B 1 :.2 J i A H L s.L e.L J N C D L K L s.a.s.T ^ E.Z j C R p.' ] b.G.{ v.a.a.g.g.g.h.e.a.z.J F 3 eX! D K j h B B 7 F P j k F 0 L F B F i N B 9 N Q.> ",
"; ; t z t t 1 y t ; . _ 2X7 0 F e.P K C N B * ;.= a i N C K p.s.L L H J w.G q.r.t.s.w.a.s.c :.j j N L ' A / ' W N 9 B H H J F s.e.g.e.z.J : 2XL D H Z j i G F < 8 6 0 7 9 a B a i 9 7 9 s B _ % ",
"&X5X6X2X<X9X5X5XiX6X5XfXpX>.>.+.o.=.X.^ ^ ` o.aX).=.).).`.)..X=X=X*X).'.'.+.O.( I b n ( [ ).dX X:.o.Y v S V V E U { E T E V y i a G H y 9 u 9X .b N 9 0 i 0 9 > 0 u 0 N B B B k i i 0 a F C ).V ",
"= < 8 8 8 Q.l z l l g f g z b m l aXc Z D ^ ~.*.Q c Z v aX*.' [ ..x.c.G.T.G.] ..<Xg ^ {. .#.~.%.%.^ :.iXQ.*.E.*. .#.{.{.1X#X=X).qX@X;X#X|.|.1X.XOX#X].8X=X=X-X_._.!.).+.W.*.o.+.+.O.@.X.o.+.hX2X",
"> i 8 0 4 :.^ z z c D Z c c b g . :.2 Z S D Z h j D H Z uX[ a.c.c.c.M.b.c.x.R ' OXL l.~ ! L C.P ~ ! L @XA s L 0 < 9 9 0 G 0 s < !.e.L l.e.H P k F 0 w x.a w a i J L K F G 7 1 E.*.[ ' U / c _ c "
};
