/* XPM */
static char *result[] = {
/* columns rows colors chars-per-pixel */
"64 64 239 2 ",
"   c black",
".  c gray3",
"X  c #181918",
"o  c #2C2D2C",
"O  c #07426F",
"+  c #034475",
"@  c #03467B",
"#  c #04497D",
"$  c #0B4B7C",
"%  c #084778",
"&  c #194C79",
"*  c #28567E",
"=  c #595A5D",
"-  c #5E615D",
";  c #585F65",
":  c #737773",
">  c #BF111E",
",  c #BD1325",
"<  c #B61A28",
"1  c #B83236",
"2  c #D30F2A",
"3  c #DD0E2A",
"4  c #D30E24",
"5  c #C31324",
"6  c #CD1125",
"7  c #CB1229",
"8  c #C7172B",
"9  c #D01127",
"0  c #D41129",
"q  c #DB122B",
"w  c #DA1C2D",
"e  c #C91F31",
"r  c #D91A33",
"t  c #C70F26",
"y  c #E40E2C",
"u  c #E1122C",
"i  c #E71231",
"p  c #E90E30",
"a  c #D92135",
"s  c #CD2937",
"d  c #E7273B",
"f  c #B5453F",
"g  c #D8384B",
"h  c #E62D46",
"j  c #BC494D",
"k  c #BD5153",
"l  c #BF5A63",
"z  c #B66371",
"x  c #D54452",
"c  c #C74853",
"v  c #E64857",
"b  c #CF6874",
"n  c #E96E78",
"m  c #CF5D70",
"M  c #034D83",
"N  c #0A4D83",
"B  c #044D8B",
"V  c #0A4A88",
"C  c #045185",
"Z  c #03528C",
"A  c #0B528B",
"S  c #0B558A",
"D  c #155689",
"F  c #045592",
"G  c #0B5593",
"H  c #045B95",
"J  c #025799",
"K  c #025B9B",
"L  c #095D9C",
"P  c #0B5E94",
"I  c #135C95",
"U  c #175C98",
"Y  c #285A84",
"T  c #375C87",
"R  c #225D96",
"E  c #0C6096",
"W  c #04619D",
"Q  c #0B619C",
"!  c #04659A",
"~  c #1B639B",
"^  c #17669B",
"/  c #13618C",
"(  c #2C648B",
")  c #396487",
"_  c #246B9C",
"`  c #2C6D9D",
"'  c #2A6597",
"]  c #356D9A",
"[  c #34729D",
"{  c #3A729D",
"}  c #26749B",
"|  c #045DA2",
" . c #0A5CA2",
".. c #165CA0",
"X. c #0463A4",
"o. c #0B64A3",
"O. c #046AA3",
"+. c #0565AA",
"@. c #0B65A9",
"#. c #036AAB",
"$. c #0A6CAD",
"%. c #0B6BA5",
"&. c #1364A1",
"*. c #136AA4",
"=. c #1E6AA2",
"-. c #126DAE",
";. c #1A6DAC",
":. c #1A65A5",
">. c #0B71AD",
",. c #0D6BB2",
"<. c #156AB1",
"1. c #0E74B3",
"2. c #1473B3",
"3. c #1B74B3",
"4. c #216BA4",
"5. c #276BA7",
"6. c #376FA8",
"7. c #2A73A9",
"8. c #3573A2",
"9. c #3A73A3",
"0. c #3373AD",
"q. c #397AA7",
"w. c #356EB4",
"e. c #2B75B4",
"r. c #2676BA",
"t. c #257BB9",
"y. c #2A7ABA",
"u. c #2676B6",
"i. c #3D7BB5",
"p. c #367AB9",
"a. c #446C8B",
"s. c #426A82",
"d. c #456E97",
"f. c #487497",
"g. c #51769C",
"h. c #57789B",
"j. c #50728D",
"k. c #6E7C97",
"l. c #4C7AA3",
"z. c #4679A9",
"x. c #577CA3",
"c. c #587CA7",
"v. c #447CBB",
"b. c #477BB5",
"n. c #547DB6",
"m. c #647DAE",
"M. c #2D7DC0",
"N. c #A67D92",
"B. c #E27A89",
"V. c #3983BD",
"C. c #3484BC",
"Z. c #3682B2",
"A. c #4482AB",
"S. c #5C82A4",
"D. c #5B86AA",
"F. c #4282BD",
"G. c #4A84B6",
"H. c #5788B7",
"J. c #6284AC",
"K. c #638BAC",
"L. c #6789A7",
"P. c #7689AA",
"I. c #7596AA",
"U. c #638AB4",
"Y. c #6A94B7",
"T. c #7699B8",
"R. c #7FA5B7",
"E. c #748B9E",
"W. c #3787C3",
"Q. c #4B8BC3",
"!. c #458AC3",
"~. c #5C8AC5",
"^. c #558BC6",
"/. c #5B94CC",
"(. c #5993C9",
"). c #5B98D2",
"_. c #4F90C4",
"`. c #618BC3",
"'. c #6295CB",
"]. c #6599CC",
"[. c #6896C9",
"{. c #749AC7",
"}. c #6497D1",
"|. c #6499D3",
" X c #6997D0",
".X c #769FD2",
"XX c #7CA3C9",
"oX c #7BA4D3",
"OX c #78A5D5",
"+X c #6AA0CF",
"@X c #97899D",
"#X c #93979D",
"$X c #AE8A90",
"%X c #859AB7",
"&X c #8E92A5",
"*X c #85A4BC",
"=X c #95A8BB",
"-X c #A5B1BC",
";X c #BAAFB8",
":X c #A696AB",
">X c #D38E8E",
",X c #E8959B",
"<X c #E98891",
"1X c #DB9CA9",
"2X c #E59EA7",
"3X c #D0AEB0",
"4X c #E4B5B8",
"5X c #85AAC4",
"6X c #87A9C6",
"7X c #95ACC6",
"8X c #9BB6CA",
"9X c #84A3D2",
"0X c #87AAD7",
"qX c #91ADD5",
"wX c #95B2DC",
"eX c #9AB8D7",
"rX c #8AB2CD",
"tX c #A5B6CB",
"yX c #A4B8DA",
"uX c #B5B4C5",
"iX c #B0BEE1",
"pX c #A4C1CB",
"aX c #A8C2D8",
"sX c #B7CAD7",
"dX c #AAC2E1",
"fX c #CAD2DA",
"gX c #D0D5D6",
"hX c #E7CED2",
"jX c #D6DBE4",
"kX c #E3DEE4",
"lX c #DCE2E9",
"zX c #DBE5F0",
"xX c #E4E4E4",
"cX c #E4E4EB",
"vX c #EBECED",
"bX c #E6E8EA",
"nX c #EAEBF2",
"mX c #E5EBF3",
"MX c #F1ECF1",
/* pixels */
"                                                                                                                                ",
"                                                                                                                                ",
"                                                                                                                                ",
"                                                                                                                                ",
"                                        X X .                                                                                   ",
"                                      =Xd.d.d.g.h.S.L.D.S.L.L.L.L.L.K.K.K.I.T.*X7X7X=X=                                         ",
"                                      I.:.;.;.5.7.7.w.0.0.F.].].!.V.V.C.W.t.y.!.].Q.^ *X                                        ",
"                                    ; G.u.p.F.v.v.b.b.b.b.[.0XwX.X[. X'.}.~.^.|.(.W.,.Z.                                        ",
"                                    H.3.;.0.v.i.v.v.n.^.n. XqXwXOX[.'.].'./.Q.).(.C.2.;.aX                                      ",
"                                  =X^ X.u.V.b.b.`.n. X`.~..XwXwX+X[.'.'.'./.^.(.'.(.r.,.A.                                      ",
"                                  G.K W @.;.u.e.v.n.`.`.~..XwXeX[.(._._.Q.Q.F.W.Q.oX|.y.~ rX                                    ",
"                                aX_ X.W X.@.+.;.y.v.m.`.`..XwXwX[.^.Q.F.V.V.C.W.W.0X0X/.;.H.                                    ",
"                                XXH H W W K W X.:.e.p.i.p.!.Q.^.V.p.y.r.3.2.2.3.C._.0X].<.7.                                    ",
"                                Y.G Z Z Z F F P o.3.;.2.>.$.,.<.>.$.>.$.>.#.,.2.$.r.].H.2.4.                                    ",
"                                Y.Z M M M C Z Z ! %.,.+.O.X.| @.+.+.+.+.X.X.X.O.$.2.(._.1.=.                                    ",
"                                Y.Z M M M M C Z F @.#.#.%.e.b.z.u.@.X.| X.W W X.#.1.'.).1.=.                                    ",
"                                Y.N M # # # C C K 7.6XuX1XB.B.n B.2XuXoX5. .| +.O.-.~.Q.1.4.                                    ",
"                                Y.A N N # # $ S K.:XB.g r 3 i 3 y h g B.3XT.,.#.W -.~.^.1.4.                                    ",
"                                U.N @ $ N $ ( &Xm s 0 3 3 y 3 3 w d i i h <XaXw.! *.~.(.-._                                     ",
"                                K.M @ % N N &Xb 7 0 7 q q q i 3 u d q r p ,XmXsX@.2././.%._                                     ",
"                                J.M V @ % k.x 2 2 6 6 2 3 0 3 u q u u y v hXnXMX5Xe.'.'.$._                                     ",
"                                K.@ @ @ T N.e 8 8 7 9 9 9 3 0 q w u y p ,XbXMXMXfX{.[.^.$.4.                                    ",
"                                J.# % V &Xc 8 7 7 2 9 9 0 0 0 q u q y g kXnXvXvX7X8X{.Q.$._                                     ",
"                                J.D & D N.< 8 7 6 6 9 9 0 0 9 q q y r <XmXnXnXvX{.6XqX X*._                                     ",
"                                S.D + ( m > > e w 6 9 9 0 9 0 q 0 q B.kXlXnXvXvXU.c.yX|.@.`                                     ",
"                                S.N + f.j 5 , e s 5 6 6 9 9 0 q u h hXbXvXvXvXvX9.l.dX|.#._                                     ",
"                                x.@ + h.1 < 5 8 5 5 6 6 0 9 0 4 x 4XcXbXbXnXmXfXG 6.aX X#.'                                     ",
"                                x.@ O j.j , > 5 6 5 7 6 5 9 0 e 4XxXxXxXbXvXjXL...8.iX X+.`                                     ",
"                                x.% @ ) k , < < 5 6 8 q 4 4 x 4XxXxXlXzXcXcXU.N R z.iX X+.[                                     ",
"                                x.# @ * z < , 5 7 6 6 6 9 x 4XxXlXlXcXcXfX{.G N A U.yX X#.8.                                    ",
"                                x.# + O @X1 , , , 5 8 s >XgXxXxXxXjXaX*X' S S D A qXqX'.+.`                                     ",
"                                x.# + + k.j , 5 5 e m 3XjXgXjXsX*XD.R V A B I w.{ tXoX(.+.`                                     ",
"                                x.$ O @ D $X1 j >X;X=X%XS.{ D Z Z B Z B F Z A U 8X~.9X).O.`                                     ",
"                                g.% + @ + j.@Xk.d.' D V B V Z V B Z B Z B Z G x.{.p.9X).! `                                     ",
"                                x.N S @ @ & x.h.V $ G G N M B B Z G F B B G K.5X@.r.9X^.%.}                                     ",
"                                g.@ A @ # # Y I.s.$ G U $ N A L Z Z Z Z N l.*X=.+.r.9X).O.8.                                    ",
"                                g.@ @ @ # C M B m.T.) $ C Z B V B F D d.rXY.| K +.u.9X^.+.`                                     ",
"                                g.@ @ @ # M B B S ] Y.I.h.] ] ( d.U.T.XX9.U | H +.u.oX'.O.]                                     ",
"                                g.$ @ @ # M C C Z P H ^ q.H.H.D.H.0.:.L K L K X.O.r.OX'.@.9.                                    ",
"                                g.M @ # # C M N Z H X.Q K W o.| K K  . .| K H L X.t.OX/.X.8.                                    ",
"                                f.$ @ # M A C C C P ^ ! ! W K K L K K L H W &.T.%.3.'.).+.]                                     ",
"                                d.@ @ % # C D f.{ ^ 5.} q.~ P W 0.0.&.^ z.q.=.[.@.t.oX/.o.[                                     ",
"                                a.@ @ @ M & 5XY.XXR.H.8X{.5X[ R.*X*XY.G.5XU.9.pX .t.XX^.Q [                                     ",
"                                a.@ + @ B ( *XC I 8XtXtXY.7XXXpXH ~ 7Xn.tXXXq.eX .y.0X).o.9.                                    ",
"                                f.# + # M ( sXh.J.8X*XpXc.I.G.fX_ d.6Xz.{ %X%XtX .y.0X).O.[                                     ",
"                                f.$ @ # # ( tXT.=XG.H.rXrX*Xz.sXrX6X9.9.6XXX6.D.@.r.(.).o.[                                     ",
"                                s.@ + # N Y S.C P ^ i.0.&.Q 8.5XL  .K J F J K K +.3.!.!.X.]                                     ",
"                                ) + @ # % $ C C E ^ i.0.Q W U 5.J J  .J K | K | X.r.+X/.W {                                     ",
"                                ) + + @ @ M Z Z E 4.i.q.E K K K J K K J J | K W +.y.0X].! 9.                                    ",
"                                ) + + + @ M C Z E =.i.0.E W W | K K J J K | K K | t.9X'.O.z.                                    ",
"                                ) + + + M M M C E =.b.0.Q K K L J J J J J J K K | r.OX X#.9.                                    ",
"                                T + + @ @ M C Z E =.i.0.Q W K K K J J K J K K | X.r.OX'.+.{                                     ",
"                                T + + @ M M C C E 4.i.7.Q W K K K J J J J J H K X.u.OX}.X.{                                     ",
"                                Y + # @ @ M M C E ^ 7.7.W W K H J J J H J H W K | u. X}.X.{                                     ",
"                                T @ + @ # M C Z P E 4.4.K K K K J K H H J J K K W u.OX].@.{                                     ",
"                                T + + @ # # M C H E ;.*.O.K K K H H J J K K H H W e.OX).%.{                                     ",
"                                =X& O + @ M B B Z ! Q K H W K H J J J F J F J J K 3.Q.C./ 8X                                    ",
"                                  tX] $ N M V Z Z H F F F F Z G F Z F J Z J J Q L @.7.V.pX                                      ",
"                                      -Xa.( / I ^ ^ 4.4.^ ~ U U I L I U U &.~ ' { g.eX                                          ",
"                                        -X&XE.I.T.I.U.J.c.x.c.c.l.g.l.x.D.P.T.I.=X#X                                            ",
"                                                        o - : : = o                                                             ",
"                                                                                                                                ",
"                                                                                                                                ",
"                                                                                                                                "
};
