/* XPM */
static char *result[] = {
/* columns rows colors chars-per-pixel */
"96 64 93 2 ",
"   c #2F2419",
".  c #32261B",
"X  c #362A1E",
"o  c #382A1D",
"O  c #3C2F22",
"+  c #3F3024",
"@  c #443326",
"#  c #493728",
"$  c #4D3A2B",
"%  c #513D2D",
"&  c #55412F",
"*  c #59422F",
"=  c #574230",
"-  c #5B4532",
";  c #5E4835",
":  c #624A36",
">  c #684E37",
",  c #664D39",
"<  c #694F3A",
"1  c #6C523C",
"2  c #71563E",
"3  c #75583F",
"4  c #735740",
"5  c #755942",
"6  c #7B5D44",
"7  c #7B5F48",
"8  c #7E6047",
"9  c #7E614A",
"0  c #805F48",
"q  c #816147",
"w  c #84644B",
"e  c #88674C",
"r  c #87684D",
"t  c #8B6A4E",
"y  c #906D4F",
"u  c #836651",
"i  c #866952",
"p  c #8D6C51",
"a  c #8D6F58",
"s  c #916E52",
"d  c #8D715B",
"f  c #947255",
"g  c #997456",
"h  c #95745A",
"j  c #9A7659",
"k  c #97785D",
"l  c #9D7A5D",
"z  c #A17C5E",
"x  c #8F7560",
"c  c #947761",
"v  c #957962",
"b  c #9D7C62",
"n  c #9E7F68",
"m  c #A27E62",
"M  c #9F8066",
"N  c #9E826C",
"B  c #A58265",
"V  c #A98466",
"C  c #A58469",
"Z  c #A9866A",
"A  c #A7886D",
"S  c #AC896D",
"D  c #B08C6F",
"F  c #A68770",
"G  c #A78870",
"H  c #AD8D72",
"J  c #AA8F79",
"K  c #B18E72",
"L  c #AF9076",
"P  c #AE927A",
"I  c #B29176",
"U  c #B5957A",
"Y  c #B8977C",
"T  c #B7987E",
"R  c #B9997E",
"E  c #B49780",
"W  c #B69981",
"Q  c #BB9C83",
"!  c #BD9F88",
"~  c #BEA087",
"^  c #BEA189",
"/  c #C1A48D",
"(  c #C3A790",
")  c #C5AA93",
"_  c #C8AD97",
"`  c #C7AE98",
"'  c #C8AE99",
"]  c #CAB19C",
"[  c #CDB6A2",
"{  c #CEB8A5",
"}  c #CFBBA9",
"|  c #D0B9A6",
" . c #D3BCAB",
/* pixels */
"B l j f z j l m V V C m B z z m z V V V B D V V V B B z z y g g g s s f j l j k j k k b b M b b k M N A H Z H I U U U Q T T H J L L Z p 8 5 < - - : : , : , & - * - & ; : 3 w f m B H K K K I I ",
"C C A A A H H K H H H S Z S S H S B B z g z z z g g z z B B V S D Z V S S S I K I I I T T T R Q Q R Q R / / / ! W Q Q ! ^ ^ Q / R Y I Z l f 8 3 1 5 5 5 1 1 5 6 8 8 8 e a l B Z H I I Q W T I J ",
"l C C H S I I I S Z Z V S D K I I D H I I I D z B D D Y R Q Q U Y Q Q / Q Q T Q E T ^ ^ ~ ^ / / ~ ^ / ) ) ( / ) ` ) ^ ( ' ) _ ' ) ( ^ Q R L L H Z S S V B l S B B M Z S S S U Z I W Q Q R T I T ",
"f j g j l B Z B B m B V D z B S D I I U U I I K Y R / Q ^ ( ) ) / / ( _ ) ) / ' { ) / ^ ) ] ] ] ` ' ] [ ' ' Q ( ' ` ' [ ' ) ] _ ] ] ` ] ] ) ^ ^ Q U S Z V l Z C Z S S I U L U ^ ! ( Q Q Q T T A ",
"V Z S K I I U Q Q W Q ^ R Q Q ( ) ) ^ ^ / ( / / _ ) ` ] ] ' ) ) ^ W ! ^ / / Q Q W ^ ^ ~ ~ ^ / ) ( ) ' ] ) / / / ) ^ ^ ^ ) ! W P U P U G C V k j s i r 1 8 r f f f l C l k B L P U T T T Q W U U ",
"V v A T ) ) / ` ( / ) ) / _ ] ] ] [ ] ) ] ] ' ] _ _ ` ( ) T T Q W T W U U Q ^ ( / ^ ^ T L W W I L A H H B b C n b m m b B Z J I L L S B C S B m l l g y g l l V K S m B Z S Y Y U U I A H H I Q ",
"Q ^ ^ ^ ( ( ^ ) _ ) ) ' [ { | { ) ^ ^ ] { ] ) ] ) U Q ( Q R ~ Q Q T I Q ! W I I T L U R I T R Q Q ) ) ) ( ! Q Q W ^ U S H K V Z Y I B B m B z B B B B B V V A I Q ^ Y I W I I R T H A T ^ ^ / Q ",
"H A H A T T W W I I A C G P W I W ^ ! ^ ^ ~ W W U B A Z B C M i h s j B S V K J b b B G T Q Q Q I T Q / Q I U U I T Q S S H Z z M l l z B C S m B C l B A B l C H K J B k k B H R C L ~ I G S Q ",
", : 4 4 5 7 9 9 9 u i d v k n C J E J P P P J C C G J I U Q I H K T Q ! ! Q ! / T W Q E H H J G v k M N F N n k d x c d k d v c s k b C b C T E ^ / Q I Q T H Z V J f p q e j b I T I I I J I S ",
"! ! ^ ! E I T I T I U T I I I J I S G A C C B B B l B Z K S H Z S I I K K Y ^ ) ) ] _ _ ) / / ~ Q U T ~ Q Q Q Q Q / / ! Q ^ ^ Q Q Q I I I T Q Q ^ ' _ / Q R Q T T I Q I I Q Q ! T T W Q U K U S ",
"N b V m m A B Z A B l j f s w 7 6 6 w 8 w w r t p g j l B m z Z Z m B B C S I Y ! ^ ^ / R R R Q ~ Q W ~ ^ ^ R I I I Q / / Q Q Q Q Q Q / Q Q Q Q Q Q Q Q Q K I Y I U U U K I U I Y T I P Z m l l ",
"4 5 6 q p i f p e s t r e w e r e 8 6 6 4 6 6 w q p j m B l f j s 0 7 r e t p t s k V V C Z K I K T ~ Q G C I I K K Q Q Q ~ Q T ~ Q Q ) Q U I Y I K K S K Z K Z B B B z B m C Z C Z Z S A Z V Z ",
": - , 1 5 4 2 4 2 4 2 5 2 5 2 1 1 6 8 6 5 6 5 5 8 3 5 4 5 w 5 2 4 4 4 6 6 6 5 7 e q t p f p j b V Z I Y S B V S U A W I I U I T J K Y I Z Z C S m b S I Z Z S m B B z V B m z V B V C B l l z j ",
"2 1 1 1 1 1 4 < < : 2 1 1 , : - , 1 , 1 2 4 7 6 1 , : , < 1 , 2 1 4 5 6 6 5 6 4 5 6 8 6 6 8 t t f k B z j m j j l B l f B Z Z L I I I K H B j g f g m k b j h h r q 8 6 w 5 2 2 1 1 4 1 , : : : ",
"# @ @ + O X X . X X o . . . . .       . O @ @ O @ @ $ $ $ # @ @ @ @ @ # $ $ $ $ # # # % # $ $ % # $ & ; ; - : : ; - ; : ; = ; , 1 4 0 7 6 6 5 5 4 4 5 2 1 2 2 5 2 2 5 6 5 2 1 1 1 1 , 1 , 2 q q ",
"5 5 5 6 8 8 q 6 4 2 6 4 4 5 4 4 5 7 e s s s g f g j f f j j g s h h z j j j g g g g j l l g g f f w g f s s a f j m m B p 8 6 p p m m m Z B m V z z l s s t s s f t s f f s w 6 7 6 5 4 3 8 8 q ",
"t e w r q e w e 0 w 5 2 5 5 5 q q r t s f f j j b S S V H V m b m g a p p s B K K K B l V m Z K S V l j m j Z V b H H K J H Z S K U K K K K Z m j m m m m f i s y t t t t w i w t t f f t e q t ",
"t t w f s s f t p r e r e w q q a j b k l B b b b S Z Z G j j b h v Z V b B H W ! Q U S C Q R Q Q L L Z H H H m A Z H Z Y R I Y U Q Q Y Q Q ~ Q ^ Y Q Y I K K K S Z S B z g f s f y f k g t p f ",
"B b l b b j a f s r p e 6 7 e s l b C B m C B b b b b A Z V Z K W I Q ! W Q ( _ / / _ Q Q / R I ~ R Q T Q K Z B Z I Y Y Y Z m m Z P K H U Y U Q Y I W K Y I U Y I K I K Y I U K S B k l j s f B ",
"k j j f s p r f s r e f j m m m V Z H C Z Z Z Z m b C A Z A n k j Z m H I Q Q I K K Q I I Q Y K S S I U T Q Z C V G A j k k q e a h f i f a 0 a r u w 7 0 7 w w 6 6 i i d b v h f f h h f r a f ",
"Z Z Z C m b m m l l l l V Z A Z m j b V A m Z A K I I U I I B m B Z S K Q I Y Q ! U Y I I J Z B A H K I Y Q K S Y K S m V z f h t s j r s z m j Z m l l m m z z l f s g z z l f k f r 5 4 1 < : ",
"B Z H S m b l m z l l m C K H H G G G Z A H K K H I I I K K Z Z Z K K U U K H K Y Q Q Q W U Q Q U I K J I K I I I K K C Z S z z m m f s s z z m B Z S D S Z S V B V S Z z m Z V Z A V m z t t t ",
"b b b b k a a f f i r a a a a r w 9 i i 9 7 i u w i a i i i w 0 w i i a d d a k c c n k h a k a d d d k v N C n v j C N n C b m j m K Z K H m Z m S K D D m Z I Y Y R Y U K K K K Z b V B g t f ",
"p p i f f s f p s s f b b B k l b b v H Z m C Z Z K S Z m l z j l V m V A S H T U T Q Q U W T Y R R Y I I S H T Q R K K S I I Z Z K K S Z m z Z S K H K Q K Z K Y I I Y Y K K K K I I I V B l l ",
"m m l B Z m V m m l l B B K Z B m Z Z V S K Z Z K Z Z Z m j j j m B S Z V Z H H I T K K I I U R ~ Q T I Y U R Q R R U R U R Y I K Z m S K K K Y Q Y Y K D Z V Z D D D I I I K S D D D V V S b j ",
"B B V S Z S H Z S Z Z H Z B z V H S H H I J H H H J E I S j j z m j j m m Z V Z H Q ! ! Q / ! Q Q ~ ~ ^ R I I I R Q K Z B m D S m j z m S K S K K Z S K I S D K S D I S K V z g m B S S I K I A ",
"b j v V Z S V G H A D S S S B z m S S S V b m Z K K I Z m m m V Z Z H S V B Z H P K U R Y Q Q Q Q H L T T Y I K K I K Z B m l g b m m f m b c f s f f h g g j m z z V B l j g y f l V I Z Z l B ",
"k s s s k C Z V B B C j f k j k b b b m n m F C c c s t w t s s j f s k h v b b m A H A H G C b B A I Z l k g l B C m b C m b l h f a m b j j m m f j j g s s 0 e r t r p j k t e q e t q r p t ",
"Z H H Z V m m V b j j j f f j b m m V S V C Z V j j j j j s t s s g z B K S K K S C S S I Y Y U R U I S D S U Y U I I I H S V B j m g j j m m g f y y s g f y g z g f f l z z z l B V B g s i s ",
"B C A V m H J V b B Z B Z C V V m C S Z l l m g g m j j j h j j m m Z S m z B Z C C S S Z S A H A A Z B B B B B V l m V Z Z l f s g s s t j g t a g m b m B V z l z g j l g z z y f g z p t t t ",
"m B V B m m H m k Z C B B B l k m m j m b f c g m m j m g f m m B m j B m C Z V V b B B C V Z A V B z C Z S S S B Z C z l C m j g s s f s s s s y s s 0 e q e t f l f f t t g l y w t f s e w 5 ",
"S B C A Z V b j m l f p s k l g j m m m m m S V Z V m m j g z j j b m Z m V m m B M V C B B V B B B z B B B S Z m m B m B V z B m V z z s j s t e s s s s s s g l j j j m l l g e e q t y f f t ",
"u i w w w w 8 7 w r i i w 7 7 8 9 9 8 6 9 8 9 8 w w i i i 9 7 6 w 9 9 w 9 7 7 i i i a i 9 9 w i i i i i w 9 7 7 i 7 7 5 5 5 4 4 6 5 4 4 5 5 2 2 3 5 5 w w q e p t i f l m l l j j s s j j l j s ",
"j b m m V Z B B Z V S S Z z l j k B V k b B b B m V V S S m Z K K J B B S H Z Z Z Z K Z K S V z z z m m Z Z V Z V m j g j j f f l z V Z m j g f j j j p t p i r 6 5 1 4 5 6 4 1 1 < 2 < : - < 1 ",
"m Z Z G H H A S Z A m h j b m b V Z A V B V l b V n m b Z B A S S K I I I H Z B m m k f j V m m z m j m b b m m j g j z l z c m V z l l j l B B z m V C Z B V V S V z m m m m m m l b j s y s j ",
"K H I K I I I K I K I I H H Z B b C C b C B l j C A S G H H m z m Z K Y / Q I Z m m l f k l f s m B l B Z V V V g t s y f s s j Z V m m B z B B V V B m j f k m z j z m z m m z m B l l s s t e ",
"j m E W W J G J H G H m b h j m H I Y K T Q Q T ! ^ I / Q T ^ / Y I H H U U J J A b b m m h f f s h h s j j b j g s g s p a f j l l l h h h b m v l s h j j p s g j m B V S Z K H S V j l m j l ",
"U T E U Y K K V Z Z S P K K H S U Q / Q ^ ) ^ ) ) ) R R T Q ^ T U U I R Y I K J R T T Q ! T E Z b c j j b m m C b b j a s g z j l m Z B m H m m z l l m z m z m m m z Z m V Z Z Z l j f f f l f ",
"Z H K Z B m m C G V m m B B V S H K K I Q Q ^ W R Q Q Q ~ Q ~ ^ E Q I T Y J Z S E Q Y I I H K H K P U K I U W K V m m b j b h f h p p h h j j f f t t p s l b m j h j b m c g h s t e e p a i t ",
"j m I T U G G C m b c f a i f s f a p k n m C V A H J I L G L L P T K J W W I U ! ^ ^ ( ^ Q / ^ Q Q Y I m m S Y Q W I K K I S m m j j m m m s g l z Z V m j j f j j m m m j h l z l z m V S l j ",
"j V A c j c m m b b m B m B b B z m S D Y Q ) / ~ U U U I I R R Q ! / Q / / ) / ) ` ( ) Q U Q R T ! W Q Y I H G A H Q Q I I K S Z H m m V b z j g l m Z B B V z V Z S m g l B l z V l g h l j l ",
"b b C C m Z b j b b m m f f i g m S K R I T A m S D H Z l V B Z B K ! T A B Z I I T R A C Z H Q Q Q Q H Y U P Z m Z J H b m c j b V V b l a p g s f j f l z j j z m m z V B V B l g s y s f f s ",
"j s p w 5 2 4 1 5 5 q h w f t f B K K C a e f A b k j A Q ^ [ }  . .| ] U H Y R Z C K S I U H Z l B b m m h j b H I I E K z l m B Z m j s r i i r 0 e r 6 6 q i 0 w w a a r e t t 8 5 6 5 2 e 7 ",
"h h j j j f h b V f j h s a f l j l f h s b B B j l C V A Z b C G K H Z Z b z B j p p p Z Z H V m t 9 m H V Z m m G m C S S D K Z K H B l f f g s s f f g s j g g f t 0 8 e e y g f f s s t 6 6 ",
"S Z B B m j Z I I H j i 5 6 f l l j j l j m l l a r r t 8 4 5 w 7 f Z m H m j l B B B Z H l m m b g l Z Z m j f f h w 0 e t g m B V m s f s f s p e r s s t t s t t t s 0 6 6 t q 8 t q q t t e ",
"z V S Z Z m l l l l m j e r e 6 e r 8 5 5 q 6 6 t q 3 1 , , : 1 4 5 6 6 6 q 0 5 7 8 e s s s s p i s f h h g b l j m g r e p t y t g g p e e w p s f g s t f j p t 0 0 w 0 0 w w q 8 t t r q 5 2 ",
"s a i a k f h p t h h s s j k k j s e g j f t 8 t t p p p f s p s s s f s s p t s t t t r 0 6 q 0 6 6 6 6 e i w q w r w r q r r w 8 8 6 6 6 6 0 r 7 6 4 6 1 5 2 2 < < < 2 1 1 > 1 1 < 1 1 1 : : ",
"m m m m m m l b b m B l j f f h B b l m m B l k g f g f f j l g f f f s s p t e s s s s s e f s s j s e e p s s j s g f p e s e f f t y f t t t t s e e f s t t t t s t w q q 0 6 6 8 1 1 5 2 : ",
"z f s j g s g j m B B B z z f g f l f p f j g l l k f e t s f p f s s y s i g g s g j g s f g s s t w y s s g g s t e e f f g g g j j s t f s y e t t e e q q 5 6 0 3 5 2 6 e q 2 6 6 , , 2 : & ",
"s z m Z m g s s f j m B B B V z C C B j g g f j l g g g g f j g g g f y t s t t s s g g g f y q q p g p t s f h j m z j f g s g g s r 6 q t w t t e t t s f j p e q 6 2 6 q 5 4 e 5 1 ; : < 1 * ",
"f g f l l j g l l m B B S Z B V B j f y g l z z B l k z z j g f p t t w w e e f z g f f l g j z g g g s g g s s t t s f f p t e t t 6 3 5 5 1 2 q 6 6 q p f h s s t r 5 8 6 6 3 5 5 1 , ; , 1 : ",
"f s p j j j f y l B m l l l l f t t g l f t f g t p t t l s s s y f g s s t t t e 0 s s y y s g y w e p s q 6 q < > < 2 4 6 4 < 2 2 1 > ; * : = < 1 : 1 , < - : 1 2 1 : - < 1 < : % * 1 2 q 0 5 ",
"l j j j y s e e g B z z l g f l s t p s q 8 8 w r e 8 q p i s t s q p q 2 1 2 2 5 e q w t s t s t p y e t g g h s e q t e 6 6 1 < 6 0 w w y y w 5 6 5 2 1 4 w i p t i q 4 6 w 6 3 5 r q q 6 3 1 ",
"5 5 8 e e p e a t t t y t p w w q q 6 t w 9 f z j f k f s f j j l f p f y t p s e r e s p q 2 1 5 4 < 2 2 7 e e t q 6 q 6 q q q 0 0 q e w w q q t p e 7 q q w r s r q i s s e e p t e w 6 e 6 , ",
"f g l z z j j s f g z B B l t e w t l B B B z B C V V b z z V V B g j l z z z l z z l l l g s t t p s r t s f s t t w 0 : < 6 5 3 3 6 2 2 2 3 2 2 6 w e f h k h j p j j g a s a t w 8 q e q e q ",
"q s g g s q e j l V z B z g t t f l l V V S V j t f j g f j z g j z z f g t e g g s p g f g f g g f s s j g j f g f g t t s s g g j g z j g s g j j h j j j l z j l m j f g g f f g g l l g y t ",
"t f s y g l Z V B g f g l j g l f g l l B S B l f y B B z g g y s s j g s q e t y y f j g s e t t s f e t s y s t s y s t y y t y f g g y y s f g g g z l g z l j l f s s s g s f f w e t t t e ",
"g f f s q q 6 6 t 8 6 3 2 2 6 w 5 2 6 5 2 6 6 6 q y y y f g f y t t t y y q e q e e q q 5 , , 1 5 2 2 2 2 5 y s e q y f f y f s f f g f s f f y e t g g g t t t f j j z z p 0 6 w t t l t t t t ",
"g g f w q > 6 f g 8 8 q 8 t e w w 3 3 : * < 1 , > 3 e y e e y t q t w y s y t s f y y f g y q q 6 5 5 2 > < 2 2 1 , 1 5 2 6 2 t y y y t t e s s e t f t 6 q e t e s r 7 0 2 2 2 9 t r t t e q e ",
"y y 6 8 t t y f z z g z z g g g g f f y y l f r w t y B V V z g s y y q g g f l B z g g f q 5 1 > : - = < < > 3 < : * - & - & , , 1 5 p f f y f f t e 5 t t e e q 6 4 < < 6 6 5 2 5 w f q 6 8 e ",
"z s y y t e e t e t s g B Z B B B z z g B z z f y s z z z z z z g g g t g g f f f y g l z g t t 6 1 1 2 3 6 2 6 2 < : 1 1 : - : : 5 e t q t s 6 3 q 6 5 5 2 w q 6 5 , : > 1 2 2 2 1 8 8 5 2 3 3 ",
"t q q t t 3 : , < q f f g l B z z g y t l z t t e 6 f s t t q 6 0 t t t s s w w e t y e 0 e t t w w w t t e w q 6 w q r t t 1 1 3 q t e t s e 6 > 0 2 : , < 2 2 < : % % , 3 2 2 5 1 , , > < 2 q ",
"2 3 3 5 3 1 1 5 6 q s j l g y s e s t t y t t f q 6 q y w 3 w 3 3 0 w 6 5 2 2 3 2 8 4 1 2 6 6 q e e 6 3 6 5 5 6 6 6 6 q 2 6 q 6 6 5 < < : < : : - - < : 1 2 5 5 2 1 - - $ & % & * ; - - - : > : ",
"0 w q e e w e s 6 : 1 2 8 2 3 3 3 6 t y f y t 1 < 8 8 6 0 0 w y y f y f t y y y e 6 w t e 6 1 1 2 e q 0 e t e e e w s t y t y g g p 6 : - : < 2 3 3 5 5 q q 6 5 6 2 1 < * 1 6 6 , = % $ % $ % & "
};
